<svg width="200" height="200" viewBox="0 0 200 200" fill="none" xmlns="http://www.w3.org/2000/svg">
<path d="M21.8815 40.5884C31.019 28.228 42.7885 18.4033 56.1031 11.6652C69.4157 4.92716 84.2597 1.28363 99.5424 1.28363V4.39396C84.7258 4.39396 70.3537 7.91901 57.4778 14.4359C44.5999 20.9528 33.2084 30.4675 24.351 42.4467L21.8815 40.5884Z" fill="#104FB4"/>
<mask id="mask0_69_2235" style="mask-type:luminance" maskUnits="userSpaceOnUse" x="106" y="0" width="13" height="8">
<path d="M106.14 0H118.673V7.75707H106.14V0Z" fill="white"/>
</mask>
<g mask="url(#mask0_69_2235)">
<path d="M106.782 0C108.707 0.144161 110.671 0.351517 112.675 0.624042C114.69 0.898541 116.636 1.22044 118.509 1.5917L117.328 7.69388C115.45 7.32064 113.625 7.01454 111.854 6.77362C110.07 6.53269 108.233 6.34113 106.347 6.20092L106.782 0Z" fill="#104FB4"/>
</g>
<path d="M115.581 3.89429C121.176 4.85405 126.663 6.31344 131.984 8.24875C137.301 10.1821 142.449 12.5914 147.364 15.4529C150.3 17.1631 153.143 19.0293 155.881 21.0416C158.619 23.0539 161.249 25.2144 163.761 27.5111L163.35 27.9693C160.851 25.6864 158.237 23.5417 155.519 21.5432C152.801 19.5447 149.977 17.6903 147.057 15.99C142.175 13.1463 137.06 10.7528 131.776 8.83132C126.495 6.90983 121.041 5.46032 115.481 4.50648L115.581 3.89429Z" fill="#104FB4"/>
<mask id="mask1_69_2235" style="mask-type:luminance" maskUnits="userSpaceOnUse" x="45" y="138" width="143" height="59">
<path d="M45.4792 138.19H187.355V196.407H45.4792V138.19Z" fill="white"/>
</mask>
<g mask="url(#mask1_69_2235)">
<path d="M187.263 139.73C179.381 157 166.877 171.169 151.63 181.019C136.38 190.872 118.391 196.405 99.5424 196.405C89.9349 196.405 80.4273 194.956 71.3191 192.148C62.213 189.339 53.5239 185.18 45.5536 179.76L46.9322 177.698C54.7107 182.988 63.1765 187.045 72.0339 189.776C80.8894 192.505 90.1581 193.917 99.5424 193.917C117.915 193.917 135.446 188.526 150.3 178.928C165.158 169.329 177.344 155.521 185.025 138.689L187.263 139.73Z" fill="#025476"/>
</g>
<path d="M25.3301 164.204C23.2837 161.832 21.3214 159.322 19.4512 156.68C17.6085 154.077 15.8949 151.393 14.3165 148.636L19.6431 145.524C21.1354 148.129 22.7432 150.651 24.4645 153.082C26.1565 155.473 27.9993 157.821 29.983 160.12L25.3301 164.204Z" fill="#5CB4CE"/>
<path d="M12.2877 139.256C5.82725 125.014 2.98574 109.634 3.70052 94.4238C4.41335 79.2138 8.68247 64.1736 16.4472 50.6086L17.5125 51.2306C9.84767 64.6219 5.63338 79.4685 4.92838 94.483C4.22339 109.498 7.02965 124.68 13.4059 138.741L12.2877 139.256Z" fill="#025476"/>
<path d="M135.648 43.991C144.206 49.7041 151.189 57.2815 156.185 66.0121V66.0161C161.832 75.8823 164.95 87.2177 164.95 98.9994C164.95 117.217 157.628 133.713 145.792 145.65C133.958 157.59 117.604 164.974 99.5424 164.974C81.4809 164.974 65.1289 157.59 53.2929 145.65C41.4568 133.713 34.1367 117.217 34.1367 98.9994H35.3704C35.3704 116.875 42.5535 133.057 54.1663 144.77C65.7791 156.484 81.8216 163.728 99.5424 163.728C117.263 163.728 133.308 156.484 144.92 144.77C156.533 133.057 163.716 116.875 163.716 98.9994C163.716 87.4349 160.659 76.3108 155.121 66.6342C150.22 58.0753 143.381 50.6461 135 45.0455C135.266 44.7315 135.485 44.378 135.648 43.991Z" fill="#5CB4CE"/>
<path d="M99.5425 12.7988C123.142 12.7988 144.509 22.4457 159.974 38.0468C175.439 53.6458 185.005 75.195 185.005 98.9994C185.005 122.804 175.439 144.355 159.974 159.954C144.509 175.553 123.142 185.202 99.5425 185.202C75.9428 185.202 54.5776 175.553 39.1128 159.954C23.646 144.355 14.0816 122.804 14.0816 98.9994C14.0816 75.195 23.646 53.6458 39.1128 38.0468C54.5776 22.4457 75.9428 12.7988 99.5425 12.7988ZM159.537 38.4852C144.184 22.9987 122.972 13.4189 99.5425 13.4189C76.1132 13.4189 54.9027 22.9987 39.5495 38.4852C24.1943 53.9717 14.6985 75.3668 14.6985 98.9994C14.6985 122.632 24.1943 144.027 39.5495 159.514C54.9027 175 76.1132 184.58 99.5425 184.58C122.972 184.58 144.184 175 159.537 159.514C174.891 144.027 184.388 122.632 184.388 98.9994C184.388 75.3668 174.891 53.9717 159.537 38.4852Z" fill="#025476"/>
<path d="M23.3365 98.9995C23.3365 77.7741 31.8669 58.5572 45.6574 44.6466C59.4478 30.738 78.5003 22.1337 99.5424 22.1337C120.586 22.1337 139.639 30.738 153.429 44.6466C167.22 58.5572 175.748 77.7741 175.748 98.9995C175.748 105.741 174.869 112.428 173.151 118.894C171.438 125.345 168.884 131.58 165.536 137.427L163.405 136.193C166.638 130.547 169.106 124.512 170.77 118.252C172.429 112.004 173.281 105.532 173.281 98.9995C173.281 78.4614 165.026 59.8665 151.684 46.4082C138.34 32.9498 119.905 24.624 99.5424 24.624C79.1818 24.624 60.7462 32.9498 47.4022 46.4082C34.0583 59.8665 25.8059 78.4614 25.8059 98.9995H23.3365Z" fill="#104FB4"/>
<path d="M143.354 175.533C136.686 179.416 129.579 182.378 122.22 184.367C114.847 186.359 107.225 187.38 99.5423 187.38C75.3473 187.38 53.4416 177.488 37.5852 161.494C21.7287 145.5 11.9214 123.406 11.9214 98.9995C11.9214 74.5947 21.7287 52.5005 37.5852 36.5064C53.4416 20.5124 75.3473 10.6186 99.5423 10.6186V15.5991C76.7103 15.5991 56.0384 24.934 41.0749 40.0256C26.1114 55.1191 16.8584 75.9692 16.8584 98.9995C16.8584 122.032 26.1114 142.882 41.0749 157.973C56.0384 173.067 76.7103 182.402 99.5423 182.402C106.808 182.402 114.003 181.438 120.947 179.562C127.903 177.682 134.608 174.89 140.886 171.234L143.354 175.533Z" fill="#5CB4CE"/>
<path d="M37.1446 98.9995C37.1446 99.1594 37.1289 99.3154 37.0995 99.4714C37.0682 99.6255 37.0232 99.7775 36.9625 99.9237C36.9037 100.07 36.8293 100.208 36.7412 100.34C36.655 100.473 36.5551 100.593 36.4435 100.706C36.3338 100.818 36.2124 100.919 36.0812 101.006C35.952 101.095 35.8129 101.168 35.668 101.229C35.5231 101.29 35.3743 101.336 35.2196 101.367C35.0648 101.397 34.9101 101.413 34.7535 101.413C34.5968 101.413 34.4401 101.397 34.2854 101.367C34.1327 101.336 33.9819 101.29 33.837 101.229C33.6921 101.168 33.555 101.095 33.4238 101.006C33.2926 100.919 33.1731 100.818 33.0615 100.706C32.9499 100.593 32.8519 100.473 32.7638 100.34C32.6777 100.208 32.6032 100.07 32.5425 99.9237C32.4838 99.7775 32.4368 99.6255 32.4074 99.4714C32.3761 99.3154 32.3604 99.1594 32.3604 98.9995C32.3604 98.8415 32.3761 98.6855 32.4074 98.5295C32.4368 98.3735 32.4838 98.2234 32.5425 98.0772C32.6032 97.9311 32.6777 97.7909 32.7638 97.6586C32.8519 97.5282 32.9499 97.4058 33.0615 97.2932C33.1731 97.1826 33.2926 97.0819 33.4238 96.9931C33.555 96.9062 33.6921 96.8311 33.837 96.7699C33.9819 96.7107 34.1327 96.6652 34.2854 96.6336C34.4401 96.602 34.5968 96.5862 34.7535 96.5862C34.9101 96.5862 35.0648 96.602 35.2196 96.6336C35.3743 96.6652 35.5231 96.7107 35.668 96.7699C35.8129 96.8311 35.952 96.9062 36.0812 96.9931C36.2124 97.0819 36.3338 97.1826 36.4435 97.2932C36.5551 97.4058 36.655 97.5282 36.7412 97.6586C36.8293 97.7909 36.9037 97.9311 36.9625 98.0772C37.0232 98.2234 37.0682 98.3735 37.0995 98.5295C37.1289 98.6855 37.1446 98.8415 37.1446 98.9995Z" fill="#5CB4CE"/>
<path d="M168.499 136.811C168.499 137.078 168.473 137.342 168.422 137.603C168.369 137.866 168.293 138.119 168.193 138.365C168.091 138.612 167.966 138.845 167.819 139.068C167.672 139.29 167.506 139.495 167.32 139.685C167.132 139.872 166.928 140.04 166.709 140.188C166.489 140.338 166.256 140.463 166.012 140.565C165.767 140.666 165.516 140.743 165.256 140.796C164.997 140.848 164.735 140.873 164.47 140.873C164.206 140.873 163.944 140.848 163.685 140.796C163.425 140.743 163.174 140.666 162.929 140.565C162.684 140.463 162.451 140.338 162.232 140.188C162.013 140.04 161.809 139.872 161.621 139.685C161.435 139.495 161.268 139.29 161.122 139.068C160.975 138.845 160.849 138.612 160.748 138.365C160.648 138.119 160.571 137.866 160.518 137.603C160.468 137.342 160.442 137.078 160.442 136.811C160.442 136.545 160.468 136.28 160.518 136.017C160.571 135.757 160.648 135.502 160.748 135.255C160.849 135.008 160.975 134.775 161.122 134.554C161.268 134.331 161.435 134.125 161.621 133.938C161.809 133.748 162.013 133.58 162.232 133.432C162.451 133.284 162.684 133.158 162.929 133.057C163.174 132.954 163.425 132.877 163.685 132.826C163.944 132.773 164.206 132.747 164.47 132.747C164.735 132.747 164.997 132.773 165.256 132.826C165.516 132.877 165.767 132.954 166.012 133.057C166.256 133.158 166.489 133.284 166.709 133.432C166.928 133.58 167.132 133.748 167.32 133.938C167.506 134.125 167.672 134.331 167.819 134.554C167.966 134.775 168.091 135.008 168.193 135.255C168.293 135.502 168.369 135.757 168.422 136.017C168.473 136.28 168.499 136.545 168.499 136.811Z" fill="#104FB4"/>
<path d="M50.2732 178.729C50.2732 178.995 50.2458 179.26 50.1949 179.523C50.1439 179.783 50.0676 180.038 49.9657 180.285C49.8639 180.53 49.7405 180.765 49.5937 180.986C49.4468 181.209 49.2803 181.414 49.0923 181.602C48.9043 181.792 48.7026 181.959 48.4813 182.108C48.262 182.256 48.029 182.382 47.7861 182.483C47.5413 182.585 47.2887 182.662 47.0302 182.714C46.7698 182.767 46.5073 182.793 46.243 182.793C45.9786 182.793 45.7181 182.767 45.4577 182.714C45.1992 182.662 44.9466 182.585 44.7018 182.483C44.457 182.382 44.2259 182.256 44.0066 182.108C43.7853 181.959 43.5816 181.792 43.3956 181.602C43.2076 181.414 43.0411 181.209 42.8943 180.986C42.7474 180.765 42.624 180.53 42.5222 180.285C42.4203 180.038 42.344 179.783 42.2931 179.523C42.2402 179.26 42.2147 178.995 42.2147 178.729C42.2147 178.462 42.2402 178.197 42.2931 177.937C42.344 177.674 42.4203 177.421 42.5222 177.174C42.624 176.928 42.7474 176.693 42.8943 176.471C43.0411 176.25 43.2076 176.045 43.3956 175.855C43.5816 175.668 43.7853 175.5 44.0066 175.35C44.2259 175.202 44.457 175.077 44.7018 174.975C44.9466 174.874 45.1992 174.797 45.4577 174.743C45.7181 174.692 45.9786 174.666 46.243 174.666C46.5073 174.666 46.7698 174.692 47.0302 174.743C47.2887 174.797 47.5413 174.874 47.7861 174.975C48.029 175.077 48.262 175.202 48.4813 175.35C48.7026 175.5 48.9043 175.668 49.0923 175.855C49.2803 176.045 49.4468 176.25 49.5937 176.471C49.7405 176.693 49.8639 176.928 49.9657 177.174C50.0676 177.421 50.1439 177.674 50.1949 177.937C50.2458 178.197 50.2732 178.462 50.2732 178.729Z" fill="#025476"/>
<path d="M131.939 36.7849C133.476 36.7849 134.87 37.4148 135.877 38.4299C136.885 39.4469 137.51 40.853 137.51 42.4052C137.51 43.9554 136.885 45.3615 135.877 46.3785C134.87 47.3955 133.476 48.0235 131.939 48.0235C130.399 48.0235 129.007 47.3955 127.999 46.3785C126.99 45.3615 126.367 43.9554 126.367 42.4052C126.367 40.853 126.99 39.4469 127.999 38.4299C129.007 37.4148 130.399 36.7849 131.939 36.7849ZM133.695 40.6318C133.247 40.1776 132.624 39.8972 131.939 39.8972C131.251 39.8972 130.631 40.1776 130.18 40.6318C129.73 41.084 129.452 41.712 129.452 42.4052C129.452 43.0964 129.73 43.7244 130.18 44.1766C130.631 44.6308 131.251 44.9112 131.939 44.9112C132.624 44.9112 133.247 44.6308 133.695 44.1766C134.146 43.7244 134.424 43.0964 134.424 42.4052C134.424 41.712 134.146 41.084 133.695 40.6318Z" fill="#5CB4CE"/>
<path fill-rule="evenodd" clip-rule="evenodd" d="M176.342 32.2606L179.058 36.0404L169.566 42.9819L166.85 39.2041L176.342 32.2606Z" fill="#025476"/>
<path fill-rule="evenodd" clip-rule="evenodd" d="M183.002 41.5916C183.752 42.8673 184.5 44.141 185.248 45.4148C182.048 47.3264 178.848 49.24 175.648 51.1516C174.9 49.8779 174.152 48.6041 173.402 47.3304C176.602 45.4187 179.802 43.5051 183.002 41.5916Z" fill="#025476"/>
<path fill-rule="evenodd" clip-rule="evenodd" d="M188.663 51.5822C189.255 52.8698 189.846 54.1593 190.438 55.4489C187.2 56.9596 183.965 58.4704 180.728 59.9811C180.137 58.6935 179.545 57.404 178.954 56.1164C182.191 54.6057 185.426 53.0929 188.663 51.5822Z" fill="#025476"/>
<path fill-rule="evenodd" clip-rule="evenodd" d="M193.244 62.1198C193.677 63.4232 194.111 64.7266 194.546 66.028C191.274 67.1398 188.001 68.2496 184.729 69.3595C184.294 68.0561 183.862 66.7527 183.427 65.4493C186.699 64.3395 189.971 63.2297 193.244 62.1198Z" fill="#025476"/>
<path fill-rule="evenodd" clip-rule="evenodd" d="M196.661 73.0898C196.939 74.407 197.215 75.7242 197.493 77.0414C194.186 77.7504 190.876 78.4574 187.567 79.1663C187.291 77.8491 187.012 76.5319 186.736 75.2147C190.044 74.5058 193.353 73.7968 196.661 73.0898Z" fill="#025476"/>
<path fill-rule="evenodd" clip-rule="evenodd" d="M198.933 84.3405C199.052 85.6735 199.172 87.0045 199.293 88.3375C195.948 88.6436 192.603 88.9516 189.259 89.2577C189.137 87.9267 189.018 86.5937 188.898 85.2627C192.243 84.9546 195.588 84.6485 198.933 84.3405Z" fill="#025476"/>
<mask id="mask2_69_2235" style="mask-type:luminance" maskUnits="userSpaceOnUse" x="189" y="95" width="11" height="6">
<path d="M189.36 95.2177H200V100.273H189.36V95.2177Z" fill="white"/>
</mask>
<g mask="url(#mask2_69_2235)">
<path fill-rule="evenodd" clip-rule="evenodd" d="M199.996 95.7509C199.959 97.0977 199.922 98.4426 199.884 99.7894C196.504 99.6946 193.122 99.6018 189.742 99.507C189.78 98.1602 189.817 96.8134 189.854 95.4685C193.234 95.5633 196.616 95.6561 199.996 95.7509Z" fill="#025476"/>
</g>
<path fill-rule="evenodd" clip-rule="evenodd" d="M199.826 107.177C199.632 108.54 199.438 109.898 199.244 111.261C195.827 110.765 192.41 110.268 188.992 109.772C189.186 108.413 189.38 107.051 189.574 105.692C192.991 106.188 196.408 106.683 199.826 107.177Z" fill="#025476"/>
<path fill-rule="evenodd" clip-rule="evenodd" d="M198.465 118.487C198.112 119.861 197.762 121.238 197.411 122.612C193.957 121.714 190.504 120.817 187.052 119.921C187.402 118.546 187.753 117.17 188.103 115.795C191.558 116.694 195.01 117.59 198.465 118.487Z" fill="#025476"/>
<path fill-rule="evenodd" clip-rule="evenodd" d="M195.905 129.538C195.398 130.926 194.889 132.317 194.38 133.705C190.89 132.407 187.402 131.108 183.912 129.81C184.42 128.42 184.927 127.032 185.436 125.642C188.926 126.941 192.415 128.239 195.905 129.538Z" fill="#025476"/>
<path fill-rule="evenodd" clip-rule="evenodd" d="M192.163 140.184L190.167 144.396L179.589 139.296L181.584 135.085L192.163 140.184Z" fill="#025476"/>
<path d="M27.7976 98.9995C27.7976 99.2128 27.776 99.4261 27.7349 99.6354C27.6938 99.8447 27.6331 100.048 27.5508 100.246C27.4705 100.443 27.3706 100.631 27.2531 100.808C27.1356 100.986 27.0025 101.15 26.8517 101.3C26.7029 101.452 26.5384 101.586 26.3641 101.705C26.1878 101.823 26.0018 101.924 25.806 102.007C25.6101 102.088 25.4084 102.149 25.2008 102.191C24.9933 102.234 24.7818 102.254 24.5703 102.254C24.3588 102.254 24.1492 102.234 23.9416 102.191C23.7341 102.149 23.5323 102.088 23.3365 102.007C23.1407 101.924 22.9546 101.823 22.7784 101.705C22.6021 101.586 22.4396 101.452 22.2888 101.3C22.14 101.15 22.0068 100.986 21.8893 100.808C21.7699 100.631 21.6719 100.443 21.5897 100.246C21.5094 100.048 21.4487 99.8447 21.4076 99.6354C21.3645 99.4261 21.3449 99.2128 21.3449 98.9995C21.3449 98.7862 21.3645 98.5749 21.4076 98.3656C21.4487 98.1562 21.5094 97.9528 21.5897 97.7554C21.6719 97.5579 21.7699 97.3703 21.8893 97.1925C22.0068 97.0148 22.14 96.8509 22.2888 96.6988C22.4396 96.5487 22.6021 96.4125 22.7784 96.294C22.9546 96.1755 23.1407 96.0748 23.3365 95.9938C23.5323 95.9129 23.7341 95.8497 23.9416 95.8082C24.1492 95.7667 24.3588 95.745 24.5703 95.745C24.7818 95.745 24.9933 95.7667 25.2008 95.8082C25.4084 95.8497 25.6101 95.9129 25.806 95.9938C26.0018 96.0748 26.1878 96.1755 26.3641 96.294C26.5384 96.4125 26.7029 96.5487 26.8517 96.6988C27.0025 96.8509 27.1356 97.0148 27.2531 97.1925C27.3706 97.3703 27.4705 97.5579 27.5508 97.7554C27.6331 97.9528 27.6938 98.1562 27.7349 98.3656C27.776 98.5749 27.7976 98.7862 27.7976 98.9995Z" fill="#104FB4"/>
<path d="M166.581 80.8825C167.365 83.8328 167.956 86.8346 168.352 89.8639C168.747 92.8953 168.947 95.9464 168.947 98.9994C168.947 118.331 161.178 135.832 148.618 148.5C136.059 161.169 118.708 169.005 99.5423 169.005C80.3783 169.005 63.0276 161.169 50.467 148.5C37.9083 135.832 30.1396 118.331 30.1396 98.9994C30.1396 79.6679 37.9083 62.1671 50.467 49.4987C63.0276 36.8303 80.3783 28.9942 99.5423 28.9942C102.57 28.9942 105.595 29.1956 108.601 29.5945C111.606 29.9935 114.58 30.5899 117.506 31.3798L117.347 31.9821C114.441 31.1961 111.492 30.6037 108.521 30.2107C105.552 29.8157 102.554 29.6182 99.5423 29.6182C80.5486 29.6182 63.3507 37.3832 50.9037 49.9391C38.4566 62.495 30.7565 79.8398 30.7565 98.9994C30.7565 118.159 38.4566 135.506 50.9037 148.062C63.3507 160.616 80.5486 168.383 99.5423 168.383C118.538 168.383 135.734 160.616 148.183 148.062C160.63 135.506 168.33 118.159 168.33 98.9994C168.33 95.9621 168.132 92.9367 167.743 89.9429C167.351 86.9471 166.765 83.973 165.986 81.0424L166.581 80.8825Z" fill="#025476"/>
</svg>
