<svg width="316" height="182" viewBox="0 0 316 182" fill="none" xmlns="http://www.w3.org/2000/svg">
<g opacity="0.71">
<path d="M1.83083 30.15L29.3298 7.62H119.48L127.657 14.32H303.953L313.266 21.95V78.06L304.087 85.58V123.68L313.412 131.33V159.05L304.502 166.34H28.2801L3.29549 145.87V87.18L10.216 81.51V51.82L1.50128 44.68L1.83083 30.15Z" fill="#0A3055"/>
</g>
<path d="M304.747 166.82H28.0482L27.8773 166.68L2.72182 146.07V86.99L9.64233 81.32V52.02L0.915405 44.87L1.25716 29.95L1.41583 29.82L29.0857 7.15002H119.711L127.889 13.85H304.185L313.827 21.75V78.25L304.649 85.77V123.49L313.986 131.14V159.25L304.747 166.82ZM28.5242 165.87H304.271L312.839 158.85V131.53L303.502 123.88V85.38L312.68 77.86V22.14L303.709 14.79H127.413L119.235 8.09003H29.5617L2.40448 30.35L2.08713 44.49L10.8018 51.63V81.71L3.88134 87.38V145.68L28.5242 165.87Z" fill="#00D8FF"/>
<path d="M51.9954 168.46H27.2182L0.707916 146.75V87.18H5.88304V144.99L29.3542 164.23H51.9954V168.46Z" fill="#00D8FF"/>
<path d="M306.333 167.84L302.684 164.85L310.825 158.17V132.21L302.257 125.18L305.906 122.19L316 130.45V159.92L306.333 167.84Z" fill="#00D8FF"/>
<path d="M315.854 78.06H310.678V22.83L302.879 16.44H289.856V12.2H305.027L315.854 21.07V78.06Z" fill="#00D8FF"/>
<path d="M3.66165 31.65L0 28.65L28.2557 5.5H120.554L128.731 12.2H148.516V16.44H126.583L118.405 9.74001H30.4039L3.66165 31.65Z" fill="#00D8FF"/>
<path d="M216.147 10.18H182.875L176.833 5.24001H132.149V4.77H177.077L183.107 9.71H215.903L222.665 4.18H249.236L254.338 0H303.941V0.470001H254.57L249.468 4.65H222.897L216.147 10.18Z" fill="#00D8FF"/>
<path d="M258.427 3.45001L254.204 6.91001H260.172L264.395 3.45001H258.427Z" fill="#00D8FF"/>
<path d="M270.364 3.45001L266.141 6.91001H272.109L276.332 3.45001H270.364Z" fill="#00D8FF"/>
<path d="M294.238 3.45001L290.014 6.91001H295.971L300.206 3.45001H294.238Z" fill="#00D8FF"/>
<path d="M282.301 3.45001L278.078 6.91001H284.046L288.269 3.45001H282.301Z" fill="#00D8FF"/>
<path d="M315.512 89.13L311.289 85.67V90.55L315.512 94.02V89.13Z" fill="#00D8FF"/>
<path d="M315.512 98.9L311.289 95.44V100.33L315.512 103.79V98.9Z" fill="#00D8FF"/>
<path d="M315.512 118.46L311.289 115V119.89L315.512 123.35V118.46Z" fill="#00D8FF"/>
<path d="M315.512 108.68L311.289 105.22V110.11L315.512 113.57V108.68Z" fill="#00D8FF"/>
<path d="M0.97644 76.68L5.17513 80.16L5.21175 75.27L1.02526 71.79L0.97644 76.68Z" fill="#00D8FF"/>
<path d="M1.14731 57.12L5.346 60.61L5.38261 55.72L1.19613 52.23L1.14731 57.12Z" fill="#00D8FF"/>
<path d="M1.06189 66.9L5.26058 70.38L5.29719 65.49L1.11071 62.01L1.06189 66.9Z" fill="#00D8FF"/>
<path d="M249.065 7.35999H132.43V7.82999H249.065V7.35999Z" fill="#00D8FF"/>
<path d="M197.167 181.41H132.051L119.553 171.17H89.9666L84.3399 166.56L85.1455 165.9L90.4427 170.23H120.029L132.527 180.47H196.691L209.178 170.23H238.776L244.061 165.9L244.879 166.56L239.252 171.17H209.654L197.167 181.41Z" fill="#00D8FF"/>
</svg>
