<svg width="316" height="243" viewBox="0 0 316 243" fill="none" xmlns="http://www.w3.org/2000/svg">
<g opacity="0.71">
<path d="M1.83077 40.3507L29.3297 10.1981H119.479L127.657 19.1649H303.953L313.266 29.3764V104.47L304.087 114.534V165.525L313.412 175.763V212.862L304.502 222.618H28.2801L3.29543 195.223V116.676L10.2159 109.087V69.3523L1.50122 59.7966L1.83077 40.3507Z" fill="#0A3055" fill-opacity="0.5"/>
</g>
<path d="M304.747 223.261H28.0482L27.8773 223.073L2.72182 195.49V116.422L9.64233 108.833V69.6201L0.915405 60.051L1.25716 40.0831L1.41583 39.9091L29.0857 9.56909H119.711L127.889 18.5359H304.185L313.827 29.1087V104.725L304.649 114.789V165.271L313.986 175.509V213.129L304.747 223.261ZM28.5242 221.989H304.271L312.839 212.594V176.031L303.502 165.793V114.267L312.68 104.203V29.6307L303.709 19.794H127.413L119.235 10.8271H29.5617L2.40448 40.6184L2.08713 59.5424L10.8018 69.0981V109.355L3.88134 116.943V194.968L28.5242 221.989Z" fill="#00D8FF"/>
<path d="M51.9955 225.455H27.2183L0.708008 196.4V116.676H5.88313V194.045L29.3543 219.794H51.9955V225.455Z" fill="#00D8FF"/>
<path d="M306.333 224.626L302.684 220.624L310.825 211.684V176.941L302.257 167.532L305.906 163.531L316 174.585V214.026L306.333 224.626Z" fill="#00D8FF"/>
<path d="M315.854 104.47H310.679V30.5542L302.879 22.0022H289.856V16.3277H305.027L315.854 28.1987V104.47Z" fill="#00D8FF"/>
<path d="M3.66165 42.3582L0 38.3432L28.2557 7.36084H120.554L128.731 16.3277H148.516V22.0022H126.583L118.405 13.0354H30.4039L3.66165 42.3582Z" fill="#00D8FF"/>
<path d="M216.147 13.6242H182.875L176.833 7.01287H132.149V6.38385H177.077L183.107 12.9952H215.903L222.665 5.59423H249.236L254.338 0H303.941V0.629018H254.57L249.468 6.22325H222.897L216.147 13.6242Z" fill="#00D8FF"/>
<path d="M258.427 4.61725L254.204 9.24788H260.172L264.395 4.61725H258.427Z" fill="#00D8FF"/>
<path d="M270.364 4.61725L266.141 9.24788H272.109L276.332 4.61725H270.364Z" fill="#00D8FF"/>
<path d="M294.238 4.61725L290.014 9.24788H295.971L300.206 4.61725H294.238Z" fill="#00D8FF"/>
<path d="M282.301 4.61725L278.078 9.24788H284.046L288.269 4.61725H282.301Z" fill="#00D8FF"/>
<path d="M315.512 119.286L311.289 114.655V121.186L315.512 125.83V119.286Z" fill="#00D8FF"/>
<path d="M315.512 132.361L311.289 127.73V134.275L315.512 138.905V132.361Z" fill="#00D8FF"/>
<path d="M315.512 158.539L311.289 153.908V160.453L315.512 165.083V158.539Z" fill="#00D8FF"/>
<path d="M315.512 145.45L311.289 140.819V147.364L315.512 151.994V145.45Z" fill="#00D8FF"/>
<path d="M0.97644 102.623L5.17513 107.281L5.21175 100.736L1.02526 96.0789L0.97644 102.623Z" fill="#00D8FF"/>
<path d="M1.14734 76.4456L5.34603 81.1163L5.38264 74.5719L1.19616 69.9011L1.14734 76.4456Z" fill="#00D8FF"/>
<path d="M1.06189 89.5344L5.26058 94.1918L5.29719 87.6474L1.11071 82.99L1.06189 89.5344Z" fill="#00D8FF"/>
<path d="M249.065 9.8501H132.429V10.4791H249.065V9.8501Z" fill="#00D8FF"/>
<path d="M197.167 242.787H132.051L119.553 229.082H89.9666L84.3398 222.913L85.1454 222.029L90.4426 227.824H120.029L132.527 241.529H196.691L209.178 227.824H238.776L244.061 222.029L244.879 222.913L239.252 229.082H209.654L197.167 242.787Z" fill="#00D8FF"/>
</svg>
