<svg width="213" height="88" viewBox="0 0 213 88" fill="none" xmlns="http://www.w3.org/2000/svg">
<path d="M2.26271 39.6323C2.26271 40.5918 3.04052 41.3696 4 41.3696H13.8112C16.1297 41.3696 18.2355 40.9273 20.0733 39.9773L20.0734 39.9774L20.0836 39.972C21.9253 39.0045 23.3836 37.6427 24.4113 35.8934C25.4748 34.1307 25.9806 32.121 25.9806 29.9222V19.1379C25.9806 16.9203 25.4786 14.9051 24.4076 13.1605C23.3779 11.4107 21.9158 10.0609 20.0677 9.12123C18.2312 8.17329 16.1273 7.73191 13.8112 7.73191H4C3.04052 7.73191 2.26271 8.50972 2.26271 9.4692V39.6323ZM15.6277 31.6463L15.6059 31.6676C15.2045 32.0682 14.6617 32.3169 13.8112 32.3169H11.9469V16.7846H13.8112C14.6617 16.7846 15.2045 17.0332 15.6059 17.4339C15.6205 17.4485 15.6354 17.4628 15.6506 17.4769C16.0565 17.8541 16.2964 18.3502 16.2964 19.1379V29.9222C16.2964 30.7097 16.0556 31.2339 15.6277 31.6463ZM28.3965 36.6211C28.4034 36.6331 28.4105 36.6449 28.4177 36.6566C29.4211 38.2924 30.8236 39.5651 32.5774 40.4728C32.5888 40.4786 32.6001 40.4843 32.6115 40.4899C34.4088 41.3706 36.4455 41.7828 38.6748 41.7828C41.4282 41.7828 43.8862 41.0987 45.9607 39.6526C48.0395 38.2035 49.3928 36.2398 49.9334 33.8119C50.0479 33.2975 49.9227 32.7588 49.593 32.3476C49.2633 31.9364 48.7647 31.6971 48.2376 31.6971H42.1522C41.3569 31.6971 40.6678 32.2362 40.4705 32.9982C40.4412 33.0163 40.3949 33.0412 40.326 33.0699C39.9178 33.2396 39.3804 33.3499 38.6748 33.3499C37.6029 33.3499 37.0848 33.0929 36.827 32.854C36.6653 32.6855 36.452 32.316 36.3801 31.5356H48.5688C49.5283 31.5356 50.3061 30.7578 50.3061 29.7983V25.5837C50.3061 23.5009 49.8304 21.5989 48.8186 19.9414C47.8435 18.2712 46.4487 16.9891 44.6839 16.1046C42.9266 15.1821 40.9036 14.7562 38.6748 14.7562C36.4388 14.7562 34.3958 15.1848 32.5945 16.0988C30.8227 16.9843 29.4131 18.2676 28.4096 19.9369L28.4096 19.9369L28.4042 19.9459C27.4211 21.604 26.9608 23.504 26.9608 25.5837V30.9552C26.9608 33.0358 27.4214 34.9431 28.3965 36.6211ZM40.7892 24.3231L36.4858 24.3652C36.5928 23.9334 36.7558 23.6245 36.9374 23.401C37.2112 23.0913 37.6886 22.8172 38.6748 22.8172C39.7027 22.8172 40.1158 23.1 40.314 23.3408C40.3217 23.3502 40.3295 23.3595 40.3374 23.3687C40.5154 23.576 40.6818 23.878 40.7892 24.3231ZM57.9576 40.1817C58.1941 40.8911 58.858 41.3696 59.6057 41.3696H67.3884C68.1383 41.3696 68.8035 40.8884 69.0383 40.1763L76.5313 17.4507C76.7058 16.9213 76.6157 16.3403 76.2891 15.8886C75.9624 15.4369 75.4388 15.1694 74.8814 15.1694H68.382C67.617 15.1694 66.9421 15.6697 66.7197 16.4017L63.4544 27.1498L60.1054 16.3903C59.8793 15.6641 59.2072 15.1694 58.4466 15.1694H52.03C51.4716 15.1694 50.9472 15.4378 50.6206 15.8909C50.2941 16.3439 50.2053 16.9263 50.3819 17.4561L57.9576 40.1817Z" fill="#2BDFFF" stroke="#2F0990" stroke-width="3.47458" stroke-linejoin="round"/>
<path d="M128.355 84.7338L128.864 85.5624H129.836H136.238H139.36L137.715 82.9096L133.577 76.2361C134.545 75.491 135.341 74.5708 135.948 73.4791C136.878 71.8299 137.319 69.9696 137.319 67.9485V55.3286C137.319 53.266 136.844 51.382 135.833 49.7412C134.837 48.0969 133.439 46.8336 131.686 45.9617C129.924 45.0579 127.922 44.6353 125.732 44.6353C123.541 44.6353 121.539 45.0579 119.777 45.9617C118.031 46.8302 116.633 48.0754 115.634 49.6938L117.113 50.6063L115.634 49.6938C114.618 51.3402 114.144 53.2415 114.144 55.3286V67.9485C114.144 69.993 114.623 71.8713 115.626 73.5293C116.622 75.1748 118.016 76.4507 119.766 77.3503L119.777 77.3561L119.788 77.3618C121.238 78.0807 122.848 78.4837 124.593 78.6035L128.355 84.7338ZM127.272 69.4294L127.258 69.4439L127.244 69.4587C127.136 69.5759 126.782 69.8343 125.732 69.8343C124.73 69.8343 124.342 69.5857 124.191 69.4294C123.997 69.2279 123.775 68.8249 123.775 67.9485V55.3286C123.775 54.4507 123.997 54.0488 124.193 53.8472C124.441 53.618 124.879 53.4021 125.732 53.4021C126.645 53.4021 127.057 53.6349 127.258 53.8345C127.457 54.0319 127.688 54.4319 127.688 55.3286V67.9485C127.688 68.8249 127.466 69.2279 127.272 69.4294ZM141.997 75.7153L141.997 75.7154L142.007 75.7249C144.136 77.7365 146.99 78.6418 150.341 78.6418C153.663 78.6418 156.496 77.7517 158.624 75.7756L158.629 75.7706L158.634 75.7656C160.775 73.7438 161.764 71.0091 161.764 67.7857V54.1073V52.37H160.027H153.871H152.133V54.1073V67.745C152.133 68.7108 151.893 69.195 151.653 69.4539L151.651 69.4562C151.46 69.6624 151.115 69.875 150.341 69.875C149.542 69.875 149.188 69.6632 149.002 69.4687C148.777 69.2069 148.549 68.7119 148.549 67.745V54.1073V52.37H146.811H140.655H138.918V54.1073V67.7857C138.918 70.9792 139.892 73.6948 141.997 75.7153ZM163.774 76.4975V78.2347H165.511H185.622H187.359V76.4975V71.0017V69.2644H185.622H180.874V54.1073V52.37H179.137H166.332H164.594V54.1073V59.6031V61.3404H166.332H171.243V69.2644H165.511H163.774V71.0017V76.4975ZM171.924 51.0228L171.937 51.0342L171.951 51.0454C173.021 51.9373 174.352 52.3029 175.772 52.3029C177.182 52.3029 178.512 51.9417 179.565 51.0342C180.678 50.1004 181.203 48.8203 181.203 47.3903C181.203 45.9603 180.678 44.6802 179.565 43.7464C178.512 42.8389 177.182 42.4777 175.772 42.4777C174.352 42.4777 173.021 42.8433 171.951 43.7351L171.937 43.7463L171.924 43.7578C170.838 44.7007 170.34 45.9794 170.34 47.3903C170.34 48.8012 170.838 50.0799 171.924 51.0228ZM188.383 76.4975V78.2347H190.12H209H210.737V76.4975V71.2052V69.468H209H201.419L209.811 60.5932L210.286 60.0909V59.3995V54.1073V52.37H208.549H190.531H188.794V54.1073V59.3995V61.1368H190.531H197.25L188.858 70.0116L188.383 70.5139V71.2052V76.4975Z" fill="#2BDFFF" stroke="#35079D" stroke-width="3.47458"/>
<path d="M97.7095 7.00436C97.7095 7.00436 74.3564 8.99615 74.3564 25.7805V45.2206C74.3564 45.2206 75.1743 57.3542 86.8749 61.4019C86.8749 61.4019 89.8739 62.6496 97.7128 62.6496C105.552 62.6496 108.551 61.4019 108.551 61.4019C120.248 57.3574 121.069 45.2206 121.069 45.2206V25.7805C121.066 8.99615 97.7095 7.00436 97.7095 7.00436Z" fill="url(#paint0_radial_29_14)"/>
<path d="M96.0128 55.5195C96.0128 55.5195 98.9829 55.6125 101.382 54.9197C103.778 54.2269 103.765 52.4789 103.64 51.8695C103.515 51.2601 103.085 49.0021 103.085 49.0021L102.206 49.3709C102.206 49.3709 102.922 51.6931 102.482 52.5623C102.043 53.4283 101.097 53.9255 98.7135 54.5605C96.3368 55.1956 96.0128 55.5195 96.0128 55.5195Z" fill="url(#paint1_linear_29_14)"/>
<path d="M79.9951 46.3015C79.9951 46.3015 82.6989 48.8385 88.6615 47.8089C90.8136 47.4369 92.3724 46.3977 93.4822 45.2238C95.1436 43.4629 96.0128 41.0926 96.0128 38.671V34.1614H94.6272C94.6272 34.1614 95.3617 38.0713 93.7452 41.1087C92.1287 44.1461 89.7616 45.8973 87.0257 46.4971C82.654 47.4529 79.9951 46.3015 79.9951 46.3015Z" fill="url(#paint2_linear_29_14)"/>
<path d="M104.961 46.3015C104.961 46.3015 107.665 48.8385 113.628 47.8089C115.78 47.4369 117.339 46.3977 118.449 45.2238C120.11 43.4629 120.979 41.0926 120.979 38.671V34.1614H119.594C119.594 34.1614 120.328 38.0713 118.712 41.1087C117.095 44.1461 114.728 45.8973 111.992 46.4971C107.62 47.4529 104.961 46.3015 104.961 46.3015Z" fill="url(#paint3_linear_29_14)"/>
<path d="M78.6319 51.3724C78.6319 51.3724 82.8977 60.6963 97.546 60.6963C112.194 60.6963 116.495 51.3724 116.495 51.3724C116.495 51.3724 110.302 56.3503 106.879 56.9051C108.451 55.2886 107.248 50.6635 100.455 51.0356C93.6586 51.4044 92.5488 56.3535 96.016 57.877C83.0709 57.646 78.6319 51.3724 78.6319 51.3724Z" fill="url(#paint4_linear_29_14)"/>
<path d="M97.6967 74.4657C95.4419 74.5298 93.2994 73.7664 91.6989 72.3809C95.753 72.7497 99.7591 72.7497 103.81 72.3744C101.905 74.0711 99.2587 74.424 97.6967 74.4657ZM107.585 70.4949C100.943 71.4796 94.4925 71.4796 87.8468 70.4949C86.9744 70.3474 86.2687 69.4942 86.2687 68.6186C86.2687 67.7429 86.9744 67.172 87.8468 67.3228C94.4925 68.3074 100.943 68.3074 107.585 67.3228C108.458 67.1752 109.163 67.7462 109.163 68.6186C109.163 69.491 108.454 70.3441 107.585 70.4949ZM107.585 62.6111C108.458 62.4636 109.163 63.0345 109.163 63.9069C109.163 64.7793 108.458 65.6357 107.585 65.7832C100.943 66.7679 94.4925 66.7679 87.8468 65.7832C86.9744 65.6357 86.2687 64.7825 86.2687 63.9069C86.2687 63.0313 86.9744 62.4604 87.8468 62.6111C88.5717 62.717 89.2965 62.8132 90.0182 62.8966C90.9836 63.0601 91.9683 63.1532 92.9722 63.1756C96.2021 63.4097 99.4095 63.4065 102.636 63.1628C103.367 63.1339 104.092 63.0665 104.801 62.9639C105.725 62.8645 106.655 62.749 107.585 62.6111Z" fill="url(#paint5_linear_29_14)"/>
<path d="M81.5442 31.9419H78.4459V26.7107C78.4459 25.8543 79.1387 25.1615 79.995 25.1615C80.8514 25.1615 81.5442 25.8543 81.5442 26.7107V31.9419Z" fill="url(#paint6_linear_29_14)"/>
<path d="M93.4725 50.7341C93.4725 50.7341 95.4611 51.289 97.934 50.7341C100.407 50.1792 102.072 49.2074 102.072 49.2074C102.072 49.2074 102.739 51.5424 102.485 52.5591C102.232 53.5759 101.382 53.9704 101.382 53.9704L95.9198 55.0577C95.9198 55.0577 94.4668 54.8973 94.0851 53.6945C93.7035 52.4918 93.4725 50.7341 93.4725 50.7341Z" fill="url(#paint7_radial_29_14)"/>
<path d="M100.221 34.1614L102.187 32.1953H118.529L119.86 33.5264L118.773 41.237C118.773 41.237 116.191 46.6446 110.081 46.6446C103.97 46.6446 101.703 41.5609 101.703 41.5609L100.221 34.1614Z" fill="url(#paint8_radial_29_14)"/>
<path d="M95.1372 34.1614L93.1711 32.1953H76.8294L75.4983 33.5264L76.5856 41.237C76.5856 41.237 79.1676 46.6446 85.2777 46.6446C91.3878 46.6446 93.6554 41.5609 93.6554 41.5609L95.1372 34.1614Z" fill="url(#paint9_radial_29_14)"/>
<path d="M122.891 31.2748H121.925V28.2566H121.929C121.929 28.2566 124.944 11.4755 112.008 6.76059C112.816 5.94591 114.035 4.88746 115.238 4.52824C112.531 3.6045 110.751 4.63087 110.751 4.63087C110.751 4.63087 110.546 2.36965 107.941 1.27272C108.377 2.02005 108.458 2.84114 108.387 3.58205C105.327 1.14122 99.7494 -0.465694 94.7715 0.121261C69.4042 3.11056 72.9355 25.9409 73.3268 28.093V31.2748H72.3614C71.4633 31.2748 70.7321 32.0061 70.7321 32.9041C70.7321 33.3532 70.9149 33.7605 71.21 34.0588C71.505 34.3539 71.9124 34.5367 72.3614 34.5367H72.7848C72.9708 34.5367 73.1536 34.5624 73.3268 34.6073V43.2288C73.3268 43.434 73.3301 43.6425 73.3333 43.8478C73.5353 51.9401 78.6415 58.759 85.7299 61.6713C85.191 62.1043 84.8575 62.7811 84.8575 63.6118C84.8575 64.5644 85.2969 65.5138 85.98 66.2066C85.2937 66.6204 84.8575 67.3677 84.8575 68.3203C84.8575 69.9849 86.1885 71.6399 87.8468 71.9222C88.4048 72.0056 88.9597 72.0761 89.5146 72.1467C91.3589 74.5106 94.2968 75.8994 97.4401 75.8994C97.5395 75.8994 97.639 75.8994 97.7352 75.8962C101.369 75.7935 104.269 74.4625 105.92 72.1467C106.475 72.0794 107.03 72.0056 107.585 71.9222C109.243 71.6399 110.574 69.9849 110.574 68.3203C110.574 67.3677 110.135 66.6171 109.452 66.2066C110.138 65.517 110.574 64.5676 110.574 63.6118C110.574 62.7458 110.212 62.053 109.635 61.6232C116.665 58.6852 121.717 51.8952 121.916 43.8478C121.922 43.6425 121.922 43.4372 121.922 43.2288V34.6041C122.095 34.5592 122.278 34.5335 122.467 34.5335H122.888C123.789 34.5335 124.517 33.8054 124.517 32.9041C124.52 32.0061 123.792 31.2748 122.891 31.2748ZM74.7509 28.2534H75.8543C75.8543 28.2534 76.5407 22.3357 79.4851 19.0514C79.9854 21.7071 85.1846 28.4362 97.6261 29.1611C110.068 29.886 115.062 24.5713 115.062 24.5713C115.062 24.5713 110.068 25.5367 106.915 24.4494C111.254 24.3885 116.559 19.2566 116.559 19.2566C116.559 19.2566 119.494 25.0524 119.494 28.2534C119.869 28.2534 120.206 28.2534 120.498 28.2534V31.2716H74.7509V28.2534ZM118.769 34.928V37.2534C118.769 42.0549 114.879 45.9454 110.077 45.9454C105.276 45.9454 101.382 42.0549 101.382 37.2534V34.928C101.382 33.6771 102.396 32.6636 103.646 32.6636H116.505C117.759 32.6636 118.769 33.6771 118.769 34.928ZM93.9569 34.928V37.2534C93.9569 42.0549 90.0663 45.9454 85.2648 45.9454C80.4633 45.9454 76.5695 42.0549 76.5695 37.2534V34.928C76.5695 33.6771 77.5831 32.6636 78.834 32.6636H91.6924C92.9433 32.6636 93.9569 33.6771 93.9569 34.928ZM97.6967 74.4657C95.4419 74.5298 93.2993 73.7664 91.6988 72.3809C95.753 72.7497 99.7591 72.7497 103.81 72.3744C101.905 74.0712 99.2587 74.424 97.6967 74.4657ZM107.585 70.4949C100.943 71.4796 94.4925 71.4796 87.8468 70.4949C86.9743 70.3474 86.2687 69.4942 86.2687 68.6186C86.2687 67.7429 86.9743 67.172 87.8468 67.3228C94.4925 68.3074 100.943 68.3074 107.585 67.3228C108.458 67.1752 109.163 67.7462 109.163 68.6186C109.163 69.491 108.454 70.3442 107.585 70.4949ZM107.585 62.6111C108.458 62.4636 109.163 63.0345 109.163 63.9069C109.163 64.7793 108.458 65.6357 107.585 65.7832C100.943 66.7679 94.4925 66.7679 87.8468 65.7832C86.9743 65.6357 86.2687 64.7825 86.2687 63.9069C86.2687 63.0313 86.9743 62.4604 87.8468 62.6111C88.5716 62.7169 89.2965 62.8132 90.0182 62.8966C90.9836 63.0601 91.9683 63.1531 92.9722 63.1756C96.202 63.4097 99.4094 63.4065 102.636 63.1628C103.367 63.1339 104.092 63.0665 104.801 62.9639C105.725 62.8645 106.655 62.749 107.585 62.6111ZM120.492 43.8093C120.37 48.6364 118.365 53.1557 114.843 56.5331C111.95 59.3075 108.307 61.0523 104.391 61.5815C103.816 61.6393 103.242 61.6938 102.668 61.7355C102.396 61.7483 102.12 61.7547 101.844 61.7547C101.844 61.7547 100.513 61.9055 97.7544 61.9055C94.9961 61.9055 93.402 61.7547 93.402 61.7547C93.216 61.7547 93.0331 61.7483 92.8471 61.7419C92.0517 61.6842 91.253 61.6104 90.4512 61.5206C86.6889 60.9272 83.196 59.2113 80.4024 56.5331C76.8806 53.1557 74.876 48.6397 74.7541 43.8093C74.7509 43.6169 74.7477 43.4212 74.7477 43.2256V35.81C74.8696 36.0795 74.937 36.3778 74.937 36.6921V37.6575C74.937 43.1325 79.376 47.5716 84.8543 47.5716H85.5503C91.0253 47.5716 95.4643 43.1325 95.4643 37.6575V36.6921C95.4643 35.4989 96.4298 34.5335 97.6229 34.5335C98.2163 34.5335 98.7583 34.7773 99.1496 35.1686C99.541 35.5599 99.7847 36.0987 99.7847 36.6953V37.6607C99.7847 43.1357 104.224 47.5748 109.699 47.5748H110.395C115.873 47.5748 120.312 43.1357 120.312 37.6607V36.6953C120.312 36.3842 120.379 36.0859 120.498 35.8165V43.2256C120.498 43.4212 120.495 43.6169 120.492 43.8093ZM108.778 36.737V39.6365C108.778 40.836 107.806 41.8111 106.604 41.8111C105.404 41.8111 104.429 40.8392 104.429 39.6365V36.737C104.429 35.5374 105.401 34.5624 106.604 34.5624C107.806 34.5624 108.778 35.5374 108.778 36.737ZM103.9 47.392C103.881 47.4112 102.043 49.3228 98.011 50.0702C93.9601 50.8207 91.1504 49.7558 91.1055 49.7366C90.8361 49.6307 90.5346 49.7622 90.4287 50.0317C90.3229 50.3011 90.4544 50.6058 90.7238 50.7116C90.7912 50.7373 91.6539 51.0709 93.0973 51.2601L93.4661 53.2551C93.7452 54.7562 95.1917 55.7505 96.6928 55.4746L100.769 54.7209C102.27 54.4418 103.265 52.9953 102.989 51.4942L102.633 49.5762C103.974 48.8417 104.625 48.1585 104.67 48.1104C104.865 47.8987 104.852 47.5684 104.644 47.3727C104.429 47.1707 104.099 47.1835 103.9 47.392ZM102.043 51.6674C102.226 52.6489 101.574 53.5951 100.593 53.7779L96.5164 54.5317C95.5349 54.7145 94.5887 54.0634 94.4059 53.0819L94.0852 51.3563C95.0795 51.4205 96.263 51.398 97.5909 51.2024L97.8827 52.774C97.9244 52.9953 98.1361 53.1428 98.3574 53.1011C98.5787 53.0595 98.7263 52.8478 98.6846 52.6265L98.3959 51.0644C99.7366 50.8014 100.843 50.4198 101.738 50.0188L102.043 51.6674ZM90.4415 38.7961C90.5506 39.2323 90.2812 39.675 89.845 39.7808C89.7808 39.7968 89.7135 39.8033 89.6493 39.8033C89.2837 39.8033 88.9501 39.5531 88.8571 39.181C88.8154 39.0206 88.3824 37.5677 86.6857 37.5677C84.9697 37.5677 84.4822 39.0431 84.4309 39.2131C84.3026 39.6429 83.8535 39.8899 83.4238 39.768C82.994 39.6429 82.7438 39.2003 82.8625 38.7705C83.1351 37.7922 84.2865 35.9383 86.6857 35.9383C89.1041 35.9383 90.201 37.8083 90.4415 38.7961Z" fill="url(#paint10_linear_29_14)"/>
<path d="M94.8549 1.31763C83.4141 1.31763 75.835 11.8572 75.5015 15.257L79.8828 10.9591C79.8828 10.9591 79.3985 21.9541 89.8674 25.5913C100.34 29.2285 107.688 26.0756 107.688 26.0756C107.688 26.0756 99.3678 24.8279 97.0103 22.262C104.362 23.6476 114.346 18.8653 114.208 13.942C114.067 9.01539 107.752 1.31763 94.8549 1.31763Z" fill="url(#paint11_linear_29_14)"/>
<path d="M115.013 9.80122C114.212 9.44519 113.891 15.5745 117.602 19.324C119.254 20.9918 120.495 26.7203 120.495 26.7203H121.252C121.255 26.7203 122.734 13.2203 115.013 9.80122Z" fill="url(#paint12_linear_29_14)"/>
<path d="M78.9109 13.3486C78.9109 13.3486 75.7901 15.4623 75.0973 17.6818C74.4045 19.9013 74.5424 27.1116 74.5424 27.1116H75.5014C75.5014 27.1116 75.3699 22.6533 77.9936 19.3593C79.1258 17.9352 79.6133 16.0845 79.222 14.3076C79.0841 13.6918 78.9109 13.3486 78.9109 13.3486Z" fill="url(#paint13_linear_29_14)"/>
<path d="M106.969 5.45518C104.824 3.16189 97.4914 1.52611 90.8809 2.77379C84.2705 4.02147 80.2035 8.96729 80.2035 8.96729L83.8086 7.58169C83.8086 7.58169 80.5788 10.385 82.2819 15.9017C84.4084 22.7912 94.8517 25.1615 94.8517 25.1615C93.1935 24.0357 92.0035 22.6308 91.2979 20.9405C91.2979 20.9405 105.144 22.3742 110.228 17.1718C107.2 17.4958 105.766 17.3322 105.766 17.3322C105.766 17.3322 113.073 11.9726 106.969 5.45518Z" fill="url(#paint14_linear_29_14)"/>
<path d="M115.94 11.6487C114.808 12.0432 116.011 16.9409 119.222 18.7916C120.052 14.7695 117.073 11.2574 115.94 11.6487Z" fill="url(#paint15_linear_29_14)"/>
<path d="M78.1925 14.9074C78.1925 14.9074 75.973 16.2705 75.4983 18.3746C75.0236 20.4787 75.4983 22.0278 75.4983 22.0278C75.4983 22.0278 77.6152 19.3015 78.1925 17.7043C78.7698 16.1102 78.1925 14.9074 78.1925 14.9074Z" fill="url(#paint16_linear_29_14)"/>
<path d="M108.669 63.9326C108.669 65.0199 107.781 65.5266 105.491 65.7832C103.204 66.0366 100.179 66.2932 97.7159 66.2932V65.8538C100.086 65.8249 102.889 65.5844 105.042 65.347C107.329 65.0904 108.217 64.5837 108.217 63.4964C108.217 63.3681 108.198 63.2558 108.159 63.1564C108.49 63.3007 108.669 63.5477 108.669 63.9326Z" fill="url(#paint17_linear_29_14)"/>
<path d="M108.669 68.6025C108.669 69.6898 107.781 70.1966 105.491 70.4532C103.204 70.7066 100.179 70.9632 97.7159 70.9632V70.5238C100.086 70.4949 102.889 70.2543 105.042 70.017C107.329 69.7604 108.217 69.2536 108.217 68.1663C108.217 68.038 108.198 67.9258 108.159 67.8263C108.49 67.9675 108.669 68.2144 108.669 68.6025Z" fill="url(#paint18_linear_29_14)"/>
<path d="M87.0578 63.1564C86.8621 63.5477 87.51 64.0031 91.3749 64.2982C95.2398 64.5933 97.546 64.5548 97.546 64.5548V63.7401C97.546 63.7401 94.2006 63.708 91.3557 63.4482C88.5139 63.1884 87.3528 62.5694 87.0578 63.1564Z" fill="url(#paint19_linear_29_14)"/>
<path d="M87.0578 67.9931C86.8621 68.3844 87.51 68.8399 91.3749 69.135C95.2398 69.43 97.546 69.3916 97.546 69.3916V68.4197C97.546 68.4197 94.191 68.5031 91.3493 68.2433C88.5043 67.9835 87.3528 67.4062 87.0578 67.9931Z" fill="url(#paint20_linear_29_14)"/>
<path d="M92.9626 72.8459C92.9626 72.8459 94.6946 73.805 97.3086 73.805C98.9251 73.805 99.6789 72.9486 99.6789 72.9486L102.267 72.8459C102.267 72.8459 100.314 74.2315 97.3214 74.2315C94.3257 74.2315 92.9626 72.8459 92.9626 72.8459Z" fill="url(#paint21_linear_29_14)"/>
<path d="M104.233 11.4177C106.482 8.82936 105.154 4.76879 101.818 3.97656C98.8578 3.27094 95.0153 2.99831 91.7149 3.79053C86.721 4.99331 84.5046 6.70286 84.5046 6.70286C84.5046 6.70286 88.9886 5.01897 92.2698 5.00614C87.7409 6.65795 86.7691 14.3301 96.5677 14.9074C94.9961 14.1921 94.2102 12.7584 94.2102 12.7584C94.2102 12.7584 101.376 14.6091 104.15 11.5108C104.179 11.4787 104.205 11.4498 104.233 11.4177Z" fill="url(#paint22_linear_29_14)"/>
<path d="M108.195 37.0834V39.2933C108.195 40.2074 107.483 40.9483 106.607 40.9483C105.731 40.9483 105.019 40.2074 105.019 39.2933V37.0834C105.019 36.1693 105.731 35.4284 106.607 35.4284C107.483 35.4251 108.195 36.1661 108.195 37.0834Z" fill="url(#paint23_linear_29_14)"/>
<path d="M107.341 37.5388V38.8346C107.341 39.3703 107.011 39.8065 106.607 39.8065C106.2 39.8065 105.872 39.3703 105.872 38.8346V37.5388C105.872 37.0032 106.203 36.567 106.607 36.567C107.011 36.567 107.341 37.0032 107.341 37.5388Z" fill="url(#paint24_linear_29_14)"/>
<path d="M77.7531 47.8122C76.8614 47.8122 76.8614 46.4266 77.7531 46.4266C78.648 46.4266 78.6448 47.8122 77.7531 47.8122ZM79.6519 47.4529C78.7602 47.4529 78.7602 48.8385 79.6519 48.8385C80.5435 48.8385 80.5435 47.4529 79.6519 47.4529ZM77.9584 48.1457C77.0667 48.1457 77.0667 49.5313 77.9584 49.5313C78.85 49.5313 78.8532 48.1457 77.9584 48.1457Z" fill="url(#paint25_linear_29_14)"/>
<defs>
<radialGradient id="paint0_radial_29_14" cx="0" cy="0" r="1" gradientUnits="userSpaceOnUse" gradientTransform="translate(97.8635 54.1795) scale(40.1636 40.1636)">
<stop stop-color="#E3FFFF"/>
<stop offset="1" stop-color="#5593DE"/>
</radialGradient>
<linearGradient id="paint1_linear_29_14" x1="100.494" y1="56.4767" x2="99.2687" y2="50.9986" gradientUnits="userSpaceOnUse">
<stop stop-color="#58A0E6" stop-opacity="0"/>
<stop offset="1" stop-color="#3782DE"/>
</linearGradient>
<linearGradient id="paint2_linear_29_14" x1="90.2849" y1="50.4261" x2="87.5677" y2="38.2758" gradientUnits="userSpaceOnUse">
<stop stop-color="#58A0E6" stop-opacity="0"/>
<stop offset="1" stop-color="#3782DE"/>
</linearGradient>
<linearGradient id="paint3_linear_29_14" x1="115.25" y1="50.4261" x2="112.532" y2="38.2757" gradientUnits="userSpaceOnUse">
<stop stop-color="#58A0E6" stop-opacity="0"/>
<stop offset="1" stop-color="#3782DE"/>
</linearGradient>
<linearGradient id="paint4_linear_29_14" x1="99.6244" y1="62.2618" x2="97.8215" y2="52.7386" gradientUnits="userSpaceOnUse">
<stop stop-color="#C0FFFE"/>
<stop offset="1" stop-color="#C0FFFE" stop-opacity="0"/>
</linearGradient>
<linearGradient id="paint5_linear_29_14" x1="97.7155" y1="74.4696" x2="97.7155" y2="62.5867" gradientUnits="userSpaceOnUse">
<stop offset="0.0112" stop-color="#8FA1C6"/>
<stop offset="1" stop-color="#D3E1ED"/>
</linearGradient>
<linearGradient id="paint6_linear_29_14" x1="79.9961" y1="31.9434" x2="79.9961" y2="25.1623" gradientUnits="userSpaceOnUse">
<stop stop-color="#C0FFFE" stop-opacity="0"/>
<stop offset="1" stop-color="#C0FFFE"/>
</linearGradient>
<radialGradient id="paint7_radial_29_14" cx="0" cy="0" r="1" gradientUnits="userSpaceOnUse" gradientTransform="translate(98.6079 53.1991) rotate(-11.5605) scale(8.59791 2.73725)">
<stop offset="0.3924" stop-color="white"/>
<stop offset="0.5459" stop-color="#FDFEFE"/>
<stop offset="0.6012" stop-color="#F6F9FC"/>
<stop offset="0.6406" stop-color="#EBF1F9"/>
<stop offset="0.6722" stop-color="#DAE5F3"/>
<stop offset="0.6983" stop-color="#C5D7ED"/>
<stop offset="1" stop-color="#C5D7ED"/>
</radialGradient>
<radialGradient id="paint8_radial_29_14" cx="0" cy="0" r="1" gradientUnits="userSpaceOnUse" gradientTransform="translate(110.224 40.0663) scale(17.7043 9.43286)">
<stop offset="0.5642" stop-color="white"/>
<stop offset="0.6315" stop-color="#FDFEFE"/>
<stop offset="0.6557" stop-color="#F6F9FC"/>
<stop offset="0.673" stop-color="#EBF1F9"/>
<stop offset="0.6869" stop-color="#DAE5F3"/>
<stop offset="0.6983" stop-color="#C5D7ED"/>
<stop offset="1" stop-color="#C5D7ED"/>
</radialGradient>
<radialGradient id="paint9_radial_29_14" cx="0" cy="0" r="1" gradientUnits="userSpaceOnUse" gradientTransform="translate(85.7803 40.0653) scale(15.9835 9.09458)">
<stop offset="0.5642" stop-color="white"/>
<stop offset="0.6315" stop-color="#FDFEFE"/>
<stop offset="0.6557" stop-color="#F6F9FC"/>
<stop offset="0.673" stop-color="#EBF1F9"/>
<stop offset="0.6869" stop-color="#DAE5F3"/>
<stop offset="0.6983" stop-color="#C5D7ED"/>
<stop offset="1" stop-color="#C5D7ED"/>
</radialGradient>
<linearGradient id="paint10_linear_29_14" x1="97.6241" y1="75.8958" x2="97.6241" y2="-0.000716176" gradientUnits="userSpaceOnUse">
<stop stop-color="#4702C6"/>
<stop offset="1" stop-color="#1C0F64"/>
</linearGradient>
<linearGradient id="paint11_linear_29_14" x1="97.9387" y1="29.8285" x2="92.2876" y2="1.50388" gradientUnits="userSpaceOnUse">
<stop stop-color="#5702D5" stop-opacity="0"/>
<stop offset="1" stop-color="#6200EA"/>
</linearGradient>
<linearGradient id="paint12_linear_29_14" x1="120.156" y1="27.9685" x2="116.473" y2="9.5045" gradientUnits="userSpaceOnUse">
<stop offset="0.1313" stop-color="#5702D5" stop-opacity="0"/>
<stop offset="1" stop-color="#6200EA"/>
</linearGradient>
<linearGradient id="paint13_linear_29_14" x1="78.199" y1="27.3144" x2="75.55" y2="14.0371" gradientUnits="userSpaceOnUse">
<stop offset="0.1313" stop-color="#5702D5" stop-opacity="0"/>
<stop offset="1" stop-color="#6200EA"/>
</linearGradient>
<linearGradient id="paint14_linear_29_14" x1="98.0463" y1="25.8371" x2="93.353" y2="2.31296" gradientUnits="userSpaceOnUse">
<stop stop-color="#4F58D5" stop-opacity="0"/>
<stop offset="1" stop-color="#545CEA"/>
</linearGradient>
<linearGradient id="paint15_linear_29_14" x1="118.353" y1="19.4061" x2="116.773" y2="11.4889" gradientUnits="userSpaceOnUse">
<stop stop-color="#4F58D5" stop-opacity="0"/>
<stop offset="1" stop-color="#545CEA"/>
</linearGradient>
<linearGradient id="paint16_linear_29_14" x1="77.5738" y1="21.986" x2="76.2413" y2="15.307" gradientUnits="userSpaceOnUse">
<stop stop-color="#4F58D5" stop-opacity="0"/>
<stop offset="1" stop-color="#545CEA"/>
</linearGradient>
<linearGradient id="paint17_linear_29_14" x1="98.1199" y1="66.9059" x2="108.279" y2="63.9935" gradientUnits="userSpaceOnUse">
<stop stop-color="#B6C6DC" stop-opacity="0"/>
<stop offset="0.9888" stop-color="#8FA1C6"/>
</linearGradient>
<linearGradient id="paint18_linear_29_14" x1="98.1199" y1="71.575" x2="108.279" y2="68.6626" gradientUnits="userSpaceOnUse">
<stop stop-color="#B6C6DC" stop-opacity="0"/>
<stop offset="0.9888" stop-color="#8FA1C6"/>
</linearGradient>
<linearGradient id="paint19_linear_29_14" x1="87.7419" y1="65.0935" x2="96.7882" y2="62.5" gradientUnits="userSpaceOnUse">
<stop offset="0.0112" stop-color="#B0BDD7"/>
<stop offset="1" stop-color="#B6C6DC" stop-opacity="0"/>
</linearGradient>
<linearGradient id="paint20_linear_29_14" x1="87.7421" y1="69.9284" x2="96.8274" y2="67.3238" gradientUnits="userSpaceOnUse">
<stop offset="0.0112" stop-color="#B0BDD7"/>
<stop offset="1" stop-color="#B6C6DC" stop-opacity="0"/>
</linearGradient>
<linearGradient id="paint21_linear_29_14" x1="93.533" y1="74.1939" x2="101.629" y2="71.8729" gradientUnits="userSpaceOnUse">
<stop stop-color="#B6C6DC" stop-opacity="0"/>
<stop offset="0.9888" stop-color="#8FA1C6"/>
</linearGradient>
<linearGradient id="paint22_linear_29_14" x1="96.5696" y1="15.5926" x2="94.1202" y2="3.31577" gradientUnits="userSpaceOnUse">
<stop stop-color="#4F58D5" stop-opacity="0"/>
<stop offset="1" stop-color="#545CEA"/>
</linearGradient>
<linearGradient id="paint23_linear_29_14" x1="106.605" y1="40.9465" x2="106.605" y2="35.4257" gradientUnits="userSpaceOnUse">
<stop stop-color="#545CEA"/>
<stop offset="1" stop-color="#4F58D5" stop-opacity="0"/>
</linearGradient>
<linearGradient id="paint24_linear_29_14" x1="106.605" y1="39.8045" x2="106.605" y2="36.5676" gradientUnits="userSpaceOnUse">
<stop stop-color="#4702C6"/>
<stop offset="1" stop-color="#1C0F64"/>
</linearGradient>
<linearGradient id="paint25_linear_29_14" x1="78.7031" y1="49.5299" x2="78.7031" y2="46.4264" gradientUnits="userSpaceOnUse">
<stop stop-color="#4702C6"/>
<stop offset="1" stop-color="#1C0F64"/>
</linearGradient>
</defs>
</svg>
