<svg width="48" height="47" viewBox="0 0 48 47" fill="none" xmlns="http://www.w3.org/2000/svg">
<mask id="mask0_30_266" style="mask-type:luminance" maskUnits="userSpaceOnUse" x="0" y="0" width="48" height="47">
<path d="M0.862061 0.516968H47.569V46.7069H0.862061V0.516968Z" fill="white"/>
</mask>
<g mask="url(#mask0_30_266)">
<path d="M47.569 23.6139C47.569 36.3678 37.1134 46.7068 24.2153 46.7068C11.3176 46.7068 0.862061 36.3678 0.862061 23.6139C0.862061 10.8604 11.3176 0.521362 24.2153 0.521362C37.1134 0.521362 47.569 10.8604 47.569 23.6139Z" fill="#FBC01C"/>
</g>
<path d="M24.2198 23.6039L24.2261 23.6002L24.2212 23.5817L24.2123 23.5965L24.2198 23.6039Z" fill="#303133"/>
<path d="M24.2351 23.5956L24.2537 23.5261L24.2214 23.5817L24.2264 23.6005L24.2351 23.5956Z" fill="#303133"/>
<path d="M24.2132 23.5967L24.2062 23.6092L24.2119 23.6109L24.2218 23.6053L24.2132 23.5967Z" fill="#303133"/>
<path d="M24.2064 23.6076L24.2025 23.6143L24.2116 23.6092L24.2064 23.6076Z" fill="#303133"/>
<path d="M24.2062 23.6073L24.2122 23.5966L24.2025 23.5866V23.6062L24.2062 23.6073Z" fill="#303133"/>
<path d="M24.2214 23.5817L24.2025 23.5126V23.5866L24.2123 23.5967L24.2214 23.5817Z" fill="#303133"/>
<path d="M24.2025 23.6135L24.206 23.6076L24.2025 23.6065V23.6135Z" fill="#303133"/>
<path d="M24.2675 23.5768L24.2351 23.5957L24.2298 23.6141L24.2675 23.5768Z" fill="#303133"/>
<path d="M24.2111 23.6091L24.2294 23.6139L24.2197 23.6042L24.2111 23.6091Z" fill="#303133"/>
<path d="M24.2297 23.6137L24.2349 23.5956L24.2263 23.6004L24.2297 23.6137Z" fill="#303133"/>
<path d="M24.2199 23.6048L24.2312 23.6159L24.2273 23.6005L24.2199 23.6048Z" fill="#303133"/>
<path d="M24.2299 23.614L24.2112 23.6091L24.2025 23.614H24.2299Z" fill="#303133"/>
<path d="M24.2062 23.6201L24.2025 23.6212V23.6407L24.2122 23.6311L24.2062 23.6201Z" fill="#303133"/>
<path d="M24.206 23.6196L24.2025 23.614V23.6206L24.206 23.6196Z" fill="#303133"/>
<path d="M24.2025 23.641V23.7154L24.2214 23.6463L24.2123 23.6313L24.2025 23.641Z" fill="#303133"/>
<path d="M24.2214 23.6463L24.2537 23.7018L24.2351 23.6328L24.2264 23.6275L24.2214 23.6463Z" fill="#303133"/>
<path d="M24.2198 23.6241L24.2123 23.6312L24.2212 23.6459L24.2261 23.6275L24.2198 23.6241Z" fill="#303133"/>
<path d="M24.2062 23.6201L24.2132 23.633L24.2218 23.6248L24.2119 23.6193L24.2062 23.6201Z" fill="#303133"/>
<path d="M24.2116 23.6195L24.2025 23.614L24.2064 23.6203L24.2116 23.6195Z" fill="#303133"/>
<path d="M24.2027 23.6065L24.1975 23.6053L24.2027 23.6144V23.6065Z" fill="#303133"/>
<path d="M24.2018 23.586L24.1649 23.5498L24.197 23.6045L24.2018 23.6056V23.586Z" fill="#303133"/>
<path d="M24.2199 23.6256L24.2273 23.6295L24.2312 23.614L24.2199 23.6256Z" fill="#303133"/>
<path d="M24.2294 23.614L24.2111 23.6192L24.2197 23.624L24.2294 23.614Z" fill="#303133"/>
<path d="M24.2299 23.614H24.2025L24.2112 23.6193L24.2299 23.614Z" fill="#303133"/>
<path d="M24.2351 23.6329L24.2675 23.6513L24.2302 23.614H24.2298L24.2351 23.6329Z" fill="#303133"/>
<path d="M24.2297 23.614L24.2263 23.6273L24.2349 23.6325L24.2297 23.614Z" fill="#303133"/>
<path d="M24.2027 23.614L24.1975 23.6231L24.2027 23.6215V23.614Z" fill="#303133"/>
<path d="M24.197 23.6226L24.1649 23.6773L24.2018 23.6407V23.6212L24.197 23.6226Z" fill="#303133"/>
<path d="M24.1976 23.6054L24.1785 23.6005L24.2025 23.614L24.1976 23.6054Z" fill="#303133"/>
<path d="M24.1785 23.6276L24.1976 23.6227L24.2025 23.614L24.1785 23.6276Z" fill="#303133"/>
<path d="M24.2023 23.6241L24.196 23.6275L24.2012 23.6459L24.2094 23.6312L24.2023 23.6241Z" fill="#303133"/>
<path d="M24.1876 23.6328L24.1686 23.7018L24.2013 23.6463L24.196 23.6275L24.1876 23.6328Z" fill="#303133"/>
<path d="M24.2107 23.633L24.2181 23.6205L24.2124 23.6193L24.2025 23.6248L24.2107 23.633Z" fill="#303133"/>
<path d="M24.2163 23.6207L24.2203 23.614L24.2111 23.6195L24.2163 23.6207Z" fill="#303133"/>
<path d="M24.2159 23.6204L24.2096 23.6311L24.2197 23.6407V23.6211L24.2159 23.6204Z" fill="#303133"/>
<path d="M24.2013 23.6463L24.2199 23.7154V23.641L24.2096 23.6313L24.2013 23.6463Z" fill="#303133"/>
<path d="M24.2197 23.614L24.2161 23.6199L24.2197 23.6206V23.614Z" fill="#303133"/>
<path d="M24.155 23.6513L24.1877 23.6329L24.1927 23.614L24.155 23.6513Z" fill="#303133"/>
<path d="M24.2109 23.6192L24.1926 23.614L24.2023 23.624L24.2109 23.6192Z" fill="#303133"/>
<path d="M24.1925 23.614L24.1876 23.6325L24.1958 23.6273L24.1925 23.614Z" fill="#303133"/>
<path d="M24.2038 23.6256L24.1926 23.614L24.1965 23.6295L24.2038 23.6256Z" fill="#303133"/>
<path d="M24.1926 23.614L24.2112 23.6193L24.22 23.614H24.1926Z" fill="#303133"/>
<path d="M24.2163 23.6073L24.2197 23.6066V23.5866L24.2096 23.5966L24.2163 23.6073Z" fill="#303133"/>
<path d="M24.2164 23.6075L24.2196 23.6134V23.6068L24.2164 23.6075Z" fill="#303133"/>
<path d="M24.2199 23.5866V23.5126L24.2013 23.5817L24.2096 23.5967L24.2199 23.5866Z" fill="#303133"/>
<path d="M24.2013 23.5817L24.1686 23.5261L24.1876 23.5956L24.196 23.6005L24.2013 23.5817Z" fill="#303133"/>
<path d="M24.2023 23.6039L24.2094 23.5965L24.2012 23.5817L24.196 23.6002L24.2023 23.6039Z" fill="#303133"/>
<path d="M24.2182 23.609L24.2106 23.5967L24.2025 23.6052L24.2123 23.6107L24.2182 23.609Z" fill="#303133"/>
<path d="M24.2111 23.6092L24.2203 23.6143L24.2167 23.6076L24.2111 23.6092Z" fill="#303133"/>
<path d="M24.2199 23.6215L24.2251 23.6231L24.2199 23.614V23.6215Z" fill="#303133"/>
<path d="M24.2199 23.6407L24.2569 23.6773L24.2248 23.6226L24.2199 23.6212V23.6407Z" fill="#303133"/>
<path d="M24.2038 23.6048L24.1965 23.6005L24.1926 23.6159L24.2038 23.6048Z" fill="#303133"/>
<path d="M24.1926 23.6139L24.2109 23.6091L24.2023 23.6042L24.1926 23.6139Z" fill="#303133"/>
<path d="M24.1926 23.614H24.22L24.2112 23.6091L24.1926 23.614Z" fill="#303133"/>
<path d="M24.1877 23.5957L24.1546 23.5768L24.1927 23.6141L24.1877 23.5957Z" fill="#303133"/>
<path d="M24.1925 23.6137L24.1958 23.6004L24.1876 23.5956L24.1925 23.6137Z" fill="#303133"/>
<path d="M24.2199 23.6144L24.2251 23.6053L24.2199 23.6069V23.6144Z" fill="#303133"/>
<path d="M24.2248 23.6045L24.2569 23.5498L24.2199 23.586V23.606L24.2248 23.6045Z" fill="#303133"/>
<path d="M24.2249 23.6227L24.2439 23.6276L24.2199 23.614L24.2249 23.6227Z" fill="#303133"/>
<path d="M24.2435 23.6005L24.2249 23.6054L24.2199 23.614L24.2435 23.6005Z" fill="#303133"/>
<path d="M24.2673 23.7158L41.8057 13.7034C40.0273 10.6646 37.4663 8.13218 34.393 6.3736L24.2673 23.7158Z" fill="#F06619"/>
<path d="M34.393 6.37354C31.4139 4.66864 27.9573 3.68835 24.2673 3.68835V23.7157L34.393 6.37354Z" fill="#FBC617"/>
<path d="M24.2673 23.7157H44.5214C44.5214 20.0672 43.5298 16.6495 41.8057 13.7034L24.2673 23.7157Z" fill="#6CBD42"/>
<path d="M24.2673 23.7158V43.7435C27.9573 43.7435 31.4139 42.7628 34.393 41.0583L24.2673 23.7158Z" fill="#862A97"/>
<path d="M34.393 41.0583C37.4663 39.2997 40.0273 36.7674 41.8057 33.7285L24.2673 23.7158L34.393 41.0583Z" fill="#4055A3"/>
<path d="M24.2673 3.68835C20.5777 3.68835 17.1215 4.66864 14.1419 6.37354L24.2673 23.7157V3.68835Z" fill="#3F546C"/>
<path d="M43.9025 23.7158H24.2673L41.8057 33.7285C43.5298 30.782 44.5214 27.3647 44.5214 23.7158H43.9025Z" fill="#44A1DF"/>
<path d="M24.2673 23.7158L14.1419 41.0583C17.1215 42.7628 20.5777 43.7435 24.2673 43.7435V23.7158Z" fill="#44A1DF"/>
<path d="M24.2673 23.7158L14.1419 6.3736C11.0686 8.13218 8.5077 10.6646 6.72931 13.7034L24.2673 23.7158Z" fill="#DF2124"/>
<path d="M24.2673 23.7157L6.72932 13.7034C5.00558 16.6495 4.01392 20.0672 4.01392 23.7157H24.2673Z" fill="#6CBD42"/>
<path d="M6.72931 33.7285C8.5077 36.7674 11.0686 39.2997 14.1419 41.0583L24.2673 23.7158L6.72931 33.7285Z" fill="#F36122"/>
<path d="M24.2673 23.7158H4.01392C4.01392 27.3647 5.00558 30.782 6.72932 33.7285L24.2673 23.7158Z" fill="#FBC617"/>
<path d="M25.1148 1.96287C25.1148 2.4686 24.7004 2.87821 24.1892 2.87821C23.678 2.87821 23.2639 2.4686 23.2639 1.96287C23.2639 1.45752 23.678 1.04791 24.1892 1.04791C24.7004 1.04791 25.1148 1.45752 25.1148 1.96287Z" fill="#FDEEB0"/>
<path d="M24.8465 1.96287C24.8465 2.3218 24.5524 2.61277 24.1892 2.61277C23.8263 2.61277 23.5322 2.3218 23.5322 1.96287C23.5322 1.60395 23.8263 1.31335 24.1892 1.31335C24.5524 1.31335 24.8465 1.60395 24.8465 1.96287Z" fill="white"/>
<path d="M30.7945 2.94421C30.6609 3.43192 30.1532 3.72101 29.6598 3.58885C29.1664 3.45707 28.8746 2.95473 29.0074 2.46702C29.141 1.97894 29.6492 1.69023 30.1425 1.82238C30.6359 1.95379 30.9277 2.45651 30.7945 2.94421Z" fill="#FDEEB0"/>
<path d="M30.5357 2.87517C30.4408 3.22133 30.0799 3.4267 29.7296 3.33284C29.3793 3.23935 29.1721 2.88268 29.2666 2.53615C29.3615 2.18961 29.7224 1.98499 30.0727 2.07848C30.423 2.17196 30.6302 2.52864 30.5357 2.87517Z" fill="white"/>
<path d="M35.9646 5.3223C35.7085 5.75969 35.1422 5.90912 34.7001 5.6557C34.2576 5.40265 34.1065 4.84248 34.3627 4.40546C34.6189 3.96807 35.1851 3.81864 35.6272 4.07169C36.0698 4.32512 36.2208 4.88491 35.9646 5.3223Z" fill="#FDEEB0"/>
<path d="M35.7324 5.18939C35.5506 5.49989 35.1487 5.60614 34.8345 5.4263C34.5203 5.24646 34.4132 4.84886 34.595 4.53837C34.7768 4.2275 35.1791 4.12163 35.4929 4.30147C35.8072 4.4813 35.9142 4.8789 35.7324 5.18939Z" fill="white"/>
<path d="M40.3776 8.98025C40.0148 9.33617 39.4292 9.33467 39.069 8.9765C38.7085 8.61795 38.7104 8.03826 39.0728 7.68196C39.4353 7.32566 40.0208 7.32754 40.3814 7.68609C40.7419 8.04427 40.74 8.62358 40.3776 8.98025Z" fill="#FDEEB0"/>
<path d="M40.1882 8.79178C39.9309 9.04483 39.5149 9.0437 39.2591 8.78915C39.0034 8.5346 39.0045 8.12311 39.2618 7.87044C39.5191 7.61739 39.9351 7.61851 40.1908 7.87306C40.4466 8.12762 40.4455 8.53873 40.1882 8.79178Z" fill="white"/>
<path d="M43.6509 13.6032C43.208 13.8547 42.6421 13.7038 42.3875 13.2653C42.1328 12.8271 42.2862 12.2677 42.729 12.0162C43.1723 11.7646 43.7382 11.9155 43.9924 12.3537C44.2471 12.7922 44.0942 13.3516 43.6509 13.6032Z" fill="#FDEEB0"/>
<path d="M43.5173 13.373C43.2027 13.5521 42.8008 13.4443 42.6201 13.1334C42.4395 12.8218 42.548 12.425 42.863 12.2463C43.1776 12.0672 43.5791 12.1749 43.7598 12.4858C43.9408 12.797 43.8319 13.1943 43.5173 13.373Z" fill="white"/>
<path d="M45.613 18.9356C45.1188 19.0651 44.6122 18.7738 44.4813 18.2849C44.3507 17.7965 44.6452 17.2956 45.1393 17.1661C45.6335 17.037 46.1401 17.3283 46.2707 17.8168C46.4016 18.3052 46.1071 18.8064 45.613 18.9356Z" fill="#FDEEB0"/>
<path d="M45.5443 18.6792C45.1933 18.7712 44.8339 18.5643 44.7409 18.217C44.6479 17.8701 44.8574 17.5146 45.2081 17.4226C45.5591 17.331 45.9185 17.5378 46.0115 17.8848C46.1045 18.2317 45.895 18.5872 45.5443 18.6792Z" fill="white"/>
<path d="M46.1082 24.5774C45.597 24.5755 45.1841 24.1644 45.1856 23.659C45.1875 23.1537 45.6035 22.7456 46.1143 22.7471C46.6255 22.749 47.0384 23.1601 47.0365 23.6654C47.0346 24.1708 46.619 24.5792 46.1082 24.5774Z" fill="#FDEEB0"/>
<path d="M46.1089 24.312C45.7461 24.3109 45.4528 24.0191 45.4543 23.6602C45.455 23.3013 45.7507 23.0111 46.1135 23.0126C46.4763 23.0137 46.7693 23.3058 46.7682 23.6647C46.767 24.0233 46.4718 24.3131 46.1089 24.312Z" fill="white"/>
<path d="M45.114 30.1351C44.6206 30.003 44.3291 29.5003 44.4627 29.0126C44.5967 28.5249 45.1048 28.2365 45.5982 28.3687C46.0916 28.5008 46.383 29.0032 46.2495 29.4913C46.1155 29.979 45.6073 30.2673 45.114 30.1351Z" fill="#FDEEB0"/>
<path d="M45.1841 29.8791C44.8338 29.7852 44.627 29.4285 44.7219 29.082C44.8168 28.7355 45.1777 28.5309 45.528 28.6247C45.8783 28.7186 46.0851 29.0756 45.9902 29.4218C45.8953 29.7683 45.5344 29.9729 45.1841 29.8791Z" fill="white"/>
<path d="M42.6888 35.2708C42.2471 35.0167 42.0976 34.4565 42.3545 34.0195C42.6114 33.5828 43.178 33.4345 43.6198 33.6887C44.0615 33.9429 44.2111 34.5034 43.9541 34.9401C43.6972 35.3767 43.131 35.525 42.6888 35.2708Z" fill="#FDEEB0"/>
<path d="M42.8239 35.0415C42.5101 34.8609 42.4038 34.4633 42.5864 34.1532C42.7689 33.8427 43.1712 33.7376 43.4847 33.9182C43.7985 34.0988 43.9048 34.4963 43.7222 34.8068C43.5397 35.1166 43.1374 35.2221 42.8239 35.0415Z" fill="white"/>
<path d="M39.0273 39.5843C38.6664 39.2265 38.6679 38.6468 39.03 38.2902C39.3924 37.9339 39.9784 37.935 40.3389 38.2932C40.6994 38.6513 40.6983 39.2307 40.3359 39.5873C39.9738 39.944 39.3878 39.9425 39.0273 39.5843Z" fill="#FDEEB0"/>
<path d="M39.2174 39.3974C38.9612 39.1428 38.9624 38.7313 39.2193 38.4783C39.4766 38.2252 39.8926 38.226 40.1487 38.4802C40.4049 38.7347 40.4038 39.1462 40.1465 39.3992C39.8895 39.6527 39.4736 39.6515 39.2174 39.3974Z" fill="white"/>
<path d="M34.3267 42.8391C34.0724 42.4009 34.2257 41.8415 34.669 41.59C35.1126 41.3384 35.6781 41.4905 35.9324 41.929C36.1863 42.3671 36.0329 42.9262 35.5897 43.1777C35.1464 43.4293 34.5806 43.2776 34.3267 42.8391Z" fill="#FDEEB0"/>
<path d="M34.5593 42.7072C34.3786 42.3956 34.4876 41.9988 34.8026 41.8201C35.1176 41.6417 35.5191 41.7495 35.6993 42.0607C35.88 42.372 35.7711 42.7692 35.4561 42.9475C35.1415 43.1259 34.7399 43.0181 34.5593 42.7072Z" fill="white"/>
<path d="M28.9876 44.7636C28.856 44.2752 29.1497 43.774 29.6434 43.6433C30.1372 43.5134 30.6446 43.8036 30.7759 44.2921C30.9076 44.7802 30.6142 45.2817 30.1205 45.412C29.6264 45.5423 29.1193 45.2521 28.9876 44.7636Z" fill="#FDEEB0"/>
<path d="M29.2468 44.6949C29.1535 44.3483 29.3618 43.992 29.7125 43.9001C30.0632 43.8073 30.4233 44.0138 30.5167 44.3604C30.6104 44.7069 30.4017 45.0632 30.051 45.1555C29.7004 45.2479 29.3402 45.0418 29.2468 44.6949Z" fill="white"/>
<path d="M23.2096 45.2607C23.2123 44.7553 23.6286 44.3476 24.1398 44.3499C24.6506 44.3525 25.0631 44.764 25.0605 45.2693C25.0582 45.7751 24.6415 46.1828 24.1307 46.1802C23.6195 46.1779 23.2073 45.766 23.2096 45.2607Z" fill="#FDEEB0"/>
<path d="M23.4779 45.2618C23.4798 44.9029 23.7754 44.6138 24.1383 44.6153C24.5015 44.6172 24.7941 44.9093 24.7922 45.2682C24.7903 45.6271 24.495 45.9166 24.1318 45.9151C23.769 45.9132 23.4764 45.6207 23.4779 45.2618Z" fill="white"/>
<path d="M17.6331 44.283C17.7666 43.7949 18.2748 43.5062 18.7682 43.6384C19.2615 43.7701 19.5534 44.2725 19.4202 44.7606C19.2866 45.2486 18.7784 45.537 18.2851 45.4052C17.7917 45.2731 17.4998 44.7707 17.6331 44.283Z" fill="#FDEEB0"/>
<path d="M17.8923 44.3521C17.9872 44.0055 18.3477 43.8005 18.6984 43.8944C19.0487 43.9879 19.2559 44.3449 19.161 44.6911C19.0665 45.0376 18.7056 45.2426 18.3553 45.1488C18.005 45.0553 17.7974 44.6986 17.8923 44.3521Z" fill="white"/>
<path d="M12.482 41.9159C12.7378 41.4781 13.304 41.3283 13.7465 41.581C14.189 41.834 14.3404 42.3938 14.0846 42.8312C13.8288 43.269 13.263 43.4188 12.8205 43.1657C12.3776 42.913 12.2262 42.3533 12.482 41.9159Z" fill="#FDEEB0"/>
<path d="M12.7142 42.0484C12.896 41.7375 13.2979 41.6312 13.6121 41.8111C13.9264 41.9905 14.0338 42.3878 13.8524 42.6986C13.6706 43.0091 13.2687 43.1154 12.9545 42.9363C12.6402 42.7564 12.5328 42.3588 12.7142 42.0484Z" fill="white"/>
<path d="M8.08193 38.2789C8.4436 37.9219 9.02957 37.9222 9.39086 38.28C9.75178 38.6378 9.75102 39.2172 9.38934 39.5742C9.02767 39.9313 8.4417 39.9309 8.08079 39.5731C7.71949 39.2153 7.72025 38.6356 8.08193 38.2789Z" fill="#FDEEB0"/>
<path d="M8.27168 38.4666C8.52823 38.2132 8.94455 38.2136 9.20072 38.4674C9.45727 38.7216 9.45689 39.133 9.19996 39.3865C8.94303 39.6399 8.52671 39.6395 8.27054 39.3853C8.01399 39.1315 8.01475 38.7201 8.27168 38.4666Z" fill="white"/>
<path d="M4.80669 33.6756C5.2492 33.4225 5.81543 33.5723 6.07122 34.0101C6.32664 34.4479 6.17521 35.0073 5.7327 35.2603C5.29019 35.513 4.72434 35.3632 4.46855 34.9258C4.21276 34.4881 4.36418 33.9283 4.80669 33.6756Z" fill="#FDEEB0"/>
<path d="M4.94107 33.9053C5.25531 33.7258 5.65721 33.8321 5.83862 34.1426C6.0204 34.4535 5.91262 34.8511 5.59839 35.0305C5.28415 35.21 4.88225 35.1037 4.70084 34.7929C4.51906 34.4824 4.62684 34.0848 4.94107 33.9053Z" fill="white"/>
<path d="M2.83401 28.363C3.32776 28.232 3.83516 28.5214 3.96761 29.0099C4.10006 29.4983 3.80708 29.9999 3.31371 30.1306C2.81997 30.2616 2.31218 29.9722 2.18011 29.4841C2.04766 28.9956 2.34027 28.494 2.83401 28.363Z" fill="#FDEEB0"/>
<path d="M2.90345 28.6191C3.25411 28.5264 3.61465 28.7321 3.70839 29.0786C3.80251 29.4252 3.59454 29.7819 3.24387 29.8746C2.89358 29.9677 2.53304 29.762 2.43892 29.4154C2.34518 29.0685 2.55316 28.7122 2.90345 28.6191Z" fill="white"/>
<path d="M2.31934 22.7385C2.83016 22.7381 3.24497 23.1473 3.24535 23.6527C3.24573 24.1584 2.8313 24.5684 2.32048 24.5684C1.80928 24.5688 1.39485 24.1595 1.39447 23.6542C1.39409 23.1485 1.80814 22.7388 2.31934 22.7385Z" fill="#FDEEB0"/>
<path d="M2.3194 23.0035C2.68221 23.0035 2.97671 23.2941 2.97709 23.6531C2.97709 24.012 2.68335 24.303 2.32016 24.3033C1.95734 24.3033 1.66284 24.0127 1.66284 23.6538C1.66246 23.2949 1.95658 23.0039 2.3194 23.0035Z" fill="white"/>
<path d="M3.29245 17.1706C3.78657 17.3009 4.07993 17.8025 3.94824 18.291C3.81617 18.7791 3.30914 19.0693 2.8154 18.939C2.32127 18.8087 2.02791 18.3071 2.1596 17.8187C2.29167 17.3302 2.7987 17.0404 3.29245 17.1706Z" fill="#FDEEB0"/>
<path d="M3.22343 17.4271C3.5741 17.5198 3.78245 17.8757 3.68871 18.2223C3.59535 18.5692 3.23519 18.7753 2.88452 18.6825C2.53385 18.5898 2.3255 18.2339 2.41924 17.887C2.5126 17.5404 2.87276 17.3343 3.22343 17.4271Z" fill="white"/>
<path d="M5.699 12.0248C6.14151 12.2775 6.29332 12.8373 6.0379 13.275C5.78249 13.7124 5.21664 13.863 4.77413 13.6103C4.33124 13.3576 4.17943 12.7982 4.43485 12.3605C4.69026 11.9227 5.25611 11.7721 5.699 12.0248Z" fill="#FDEEB0"/>
<path d="M5.5646 12.2545C5.87922 12.434 5.987 12.8316 5.80559 13.1421C5.62418 13.4533 5.22228 13.5596 4.90804 13.3805C4.59343 13.201 4.48565 12.8038 4.66705 12.493C4.84846 12.1821 5.25036 12.0755 5.5646 12.2545Z" fill="white"/>
<path d="M9.29747 7.74095C9.66028 8.09687 9.66294 8.67618 9.30316 9.03511C8.94338 9.39441 8.35742 9.39666 7.99422 9.04111C7.63141 8.68519 7.62875 8.10588 7.98853 7.74695C8.34831 7.38803 8.93428 7.3854 9.29747 7.74095Z" fill="#FDEEB0"/>
<path d="M9.10846 7.92977C9.36615 8.18207 9.36805 8.59356 9.11264 8.84848C8.85723 9.10341 8.4409 9.10529 8.18322 8.85224C7.92553 8.59994 7.92363 8.18845 8.17904 7.93352C8.43483 7.6786 8.85078 7.67672 9.10846 7.92977Z" fill="white"/>
<path d="M14.0517 4.41634C14.3071 4.85411 14.1553 5.4139 13.7124 5.66657C13.2699 5.91887 12.704 5.7687 12.4486 5.3313C12.1928 4.89353 12.3446 4.33374 12.7875 4.08107C13.2304 3.82877 13.7962 3.97857 14.0517 4.41634Z" fill="#FDEEB0"/>
<path d="M13.8194 4.54887C14.0004 4.85974 13.8926 5.25734 13.5784 5.4368C13.2642 5.61589 12.8623 5.50926 12.6809 5.19877C12.4995 4.88752 12.6072 4.4903 12.9215 4.31084C13.2361 4.13138 13.638 4.238 13.8194 4.54887Z" fill="white"/>
<path d="M19.4015 2.4742C19.534 2.96228 19.2414 3.46425 18.748 3.59528C18.2543 3.72669 17.7469 3.43722 17.614 2.94914C17.4812 2.46106 17.7738 1.95909 18.2676 1.82769C18.7613 1.69666 19.2691 1.98575 19.4015 2.4742Z" fill="#FDEEB0"/>
<path d="M19.1424 2.54292C19.2365 2.88946 19.0289 3.24613 18.6783 3.33924C18.328 3.43198 17.9674 3.22698 17.8733 2.88007C17.7792 2.53354 17.9868 2.17724 18.3375 2.08413C18.6877 1.99102 19.0483 2.19639 19.1424 2.54292Z" fill="white"/>
<path d="M24.2673 23.7157L26.681 19.5825C27.4347 19.9857 28.0757 20.5691 28.5444 21.2742L24.2673 23.7157Z" fill="#A2491D"/>
<path d="M24.2673 23.7157V18.9701C25.1405 18.9769 25.9622 19.1976 26.681 19.5824L24.2673 23.7157Z" fill="#AB8B18"/>
<path d="M29.3774 23.7158H24.2673L28.5444 21.2742C29.0165 21.9842 29.3144 22.8184 29.3774 23.7158Z" fill="#4F8331"/>
<path d="M24.2673 29.1796V23.7158L26.9941 28.3855C26.2051 28.8819 25.2703 29.1721 24.2673 29.1796Z" fill="#5E2066"/>
<path d="M26.9941 28.3855L24.2673 23.7158L28.8571 26.336C28.437 27.1766 27.7895 27.8855 26.9941 28.3855Z" fill="#2D3E73"/>
<path d="M24.2673 23.7157L21.8354 19.5502C22.5504 19.1796 23.3641 18.9701 24.2275 18.9701C24.2407 18.9701 24.254 18.9701 24.2673 18.9701V23.7157Z" fill="#2C3B4B"/>
<path d="M28.8571 26.336L24.2673 23.7158H29.3774C29.3857 23.8348 29.3899 23.9542 29.3899 24.0751C29.3899 24.8868 29.1983 25.6546 28.8571 26.336Z" fill="#3275A8"/>
<path d="M24.2275 29.18C23.2347 29.18 22.3068 28.9025 21.5197 28.422L24.2673 23.7158V29.1796C24.254 29.18 24.2408 29.18 24.2275 29.18Z" fill="#3275A8"/>
<path d="M24.2673 23.7157L19.9329 21.2412C20.4122 20.532 21.0669 19.9481 21.8354 19.5502L24.2673 23.7157Z" fill="#991A20"/>
<path d="M24.2673 23.7157H19.0775C19.1417 22.8045 19.4479 21.9586 19.9329 21.2411L24.2673 23.7157Z" fill="#4F8331"/>
<path d="M21.5197 28.422C20.709 27.9275 20.0472 27.2168 19.6157 26.3717L24.2673 23.7158L21.5197 28.422Z" fill="#B5491F"/>
<path d="M19.6157 26.3717C19.2635 25.6812 19.065 24.901 19.065 24.0751C19.065 23.9542 19.0692 23.8348 19.0775 23.7158H24.2674L19.6157 26.3717Z" fill="#AB8B18"/>
<path d="M40.2437 14.5951C38.5647 11.8878 36.2015 9.64035 33.3923 8.08788L34.3931 6.3736C37.4664 8.13218 40.0273 10.6646 41.8057 13.7034L40.2437 14.5951Z" fill="#AF4E1E"/>
<path d="M33.3923 8.08779C31.1676 6.85746 28.6628 6.06377 25.9964 5.82235L27.0867 3.93048L27.0974 3.88318C29.7247 4.24774 32.1893 5.11239 34.3931 6.37351L33.3923 8.08779Z" fill="#B89517"/>
<path d="M44.5215 23.7157H42.9875C42.8896 20.3788 41.8991 17.2637 40.2437 14.5951L41.8057 13.7034C43.5298 16.6495 44.5215 20.0672 44.5215 23.7157Z" fill="#548D33"/>
<path d="M24.2673 43.7435V42.782C27.7781 42.782 31.0636 41.8265 33.8716 40.1647L34.393 41.0583C31.492 42.7178 28.1394 43.6909 24.5587 43.7412C24.462 43.7427 24.3648 43.7435 24.2673 43.7435Z" fill="#66226E"/>
<path d="M34.3931 41.0583L33.8716 40.1648C36.7449 38.4644 39.1184 36.0247 40.7237 33.1109L41.8057 33.7285C40.0501 36.7287 37.5317 39.2352 34.51 40.9907C34.4713 41.0133 34.4322 41.0358 34.3931 41.0583Z" fill="#30437A"/>
<path d="M41.8057 33.7285L40.7237 33.1109C42.1723 30.482 42.9955 27.4676 42.9955 24.2632C42.9955 24.0803 42.9928 23.8975 42.9875 23.7158H44.5215C44.5215 25.4038 44.3093 27.0418 43.9105 28.6071C43.4471 30.4253 42.7321 32.1453 41.8057 33.7285Z" fill="#367DB2"/>
<path d="M24.2673 43.7435C24.1701 43.7435 24.073 43.7427 23.9762 43.7412C20.3955 43.6909 17.0429 42.7178 14.1419 41.0583L14.6634 40.1647C17.4714 41.8265 20.7568 42.782 24.2673 42.782V43.7435Z" fill="#367DB2"/>
<path d="M15.1427 8.08786L14.1419 6.37358C16.351 5.10946 18.8228 4.24368 21.4574 3.88025L21.4752 3.96022L22.5602 5.82055C19.8862 6.05971 17.3734 6.85453 15.1427 8.08786Z" fill="#2F3E50"/>
<path d="M8.29138 14.5951L6.72931 13.7034C7.07694 13.1095 7.45494 12.5343 7.86025 11.9809C9.48836 9.75899 11.5658 7.88138 13.9624 6.47759C14.022 6.44268 14.082 6.40776 14.1419 6.3736L15.1427 8.08788C12.3336 9.64035 9.97034 11.8878 8.29138 14.5951Z" fill="#A51C21"/>
<path d="M5.5479 23.7158H4.01392C4.01392 20.8226 4.63745 18.0747 5.75512 15.5915C6.04696 14.9435 6.37258 14.3135 6.72932 13.7034L8.29139 14.5951C6.63596 17.2638 5.64544 20.3788 5.5479 23.7158Z" fill="#548D33"/>
<path d="M14.1419 41.0583C14.1028 41.0358 14.0638 41.0133 14.025 40.9907C13.8436 40.8852 13.6637 40.7771 13.4858 40.666C13.4816 40.6637 13.4778 40.6611 13.4736 40.6585C12.2246 39.8787 11.0679 38.9678 10.0231 37.9455C10.0204 37.9425 10.0174 37.9399 10.0144 37.9373C9.99311 37.9159 9.97148 37.8948 9.94985 37.8734C9.92594 37.8494 9.90165 37.8257 9.87774 37.8017C9.87736 37.8013 9.87736 37.801 9.87698 37.801C9.85573 37.7796 9.83447 37.7582 9.81284 37.7368C9.81246 37.7364 9.81208 37.7356 9.8117 37.7353C8.62839 36.5425 7.5946 35.2029 6.74069 33.7477C6.7369 33.7413 6.7331 33.7349 6.72931 33.7285L7.8113 33.1109C9.41663 36.0247 11.7901 38.4644 14.6634 40.1648L14.1419 41.0583Z" fill="#C34E1F"/>
<path d="M6.72932 33.7285C5.00558 30.782 4.01392 27.3647 4.01392 23.7158H5.5479C5.54259 23.8975 5.53993 24.0803 5.53993 24.2632C5.53993 27.4676 6.36271 30.482 7.81131 33.1109L6.72932 33.7285Z" fill="#B89517"/>
<path d="M28.6955 23.614C28.6955 26.0604 26.6898 28.0438 24.2157 28.0438C21.7413 28.0438 19.7356 26.0604 19.7356 23.614C19.7356 21.1672 21.7413 19.1841 24.2157 19.1841C26.6898 19.1841 28.6955 21.1672 28.6955 23.614Z" fill="#CFA520"/>
<path d="M28.0313 23.614C28.0313 25.6977 26.3228 27.3872 24.2157 27.3872C22.1083 27.3872 20.3997 25.6977 20.3997 23.614C20.3997 21.5303 22.1083 19.8408 24.2157 19.8408C26.3228 19.8408 28.0313 21.5303 28.0313 23.614Z" fill="#FDEEB0"/>
<path d="M27.5744 23.614C27.5744 25.4484 26.0707 26.9352 24.2157 26.9352C22.3606 26.9352 20.8566 25.4484 20.8566 23.614C20.8566 21.7795 22.3606 20.2928 24.2157 20.2928C26.0707 20.2928 27.5744 21.7795 27.5744 23.614Z" fill="#EDC834"/>
<path d="M24.2157 21.4282L24.9937 22.7858L26.5399 23.0978L25.4746 24.2493L25.6522 25.7998L24.2157 25.1537L22.7789 25.7998L22.9565 24.2493L21.8912 23.0978L23.4374 22.7858L24.2157 21.4282Z" fill="#FDEEB0"/>
<path d="M24.2897 8.78467L24.2673 8.74713V5.74469C24.8502 5.74469 25.4271 5.77097 25.9963 5.82241L24.2897 8.78467Z" fill="#AA901B"/>
<path d="M24.2673 8.74713L22.5603 5.82053C23.1227 5.77022 23.692 5.74469 24.2673 5.74469V8.74713Z" fill="#394758"/>
<path d="M27.0973 3.88322C26.1728 3.75481 25.2278 3.68836 24.2673 3.68836C23.3136 3.68836 22.3758 3.75369 21.4574 3.88021L20.9109 1.43494H23.4331C23.3265 1.58436 23.2639 1.76645 23.2639 1.96281C23.2639 2.46854 23.6779 2.87815 24.1891 2.87815C24.7003 2.87815 25.1147 2.46854 25.1147 1.96281C25.1147 1.76645 25.0521 1.58436 24.9455 1.43494H27.6597L27.0973 3.88322Z" fill="#AB8D24"/>
<path d="M24.1892 2.87815C23.678 2.87815 23.2639 2.46854 23.2639 1.96281C23.2639 1.76645 23.3265 1.58436 23.4332 1.43494H23.8059C23.64 1.55283 23.5322 1.74543 23.5322 1.96281C23.5322 2.32174 23.8264 2.61271 24.1892 2.61271C24.5524 2.61271 24.8465 2.32174 24.8465 1.96281C24.8465 1.74543 24.7383 1.55283 24.5725 1.43494H24.9455C25.0522 1.58436 25.1148 1.76645 25.1148 1.96281C25.1148 2.46854 24.7004 2.87815 24.1892 2.87815Z" fill="#ABA584"/>
<path d="M24.1892 2.61271C23.8263 2.61271 23.5322 2.32174 23.5322 1.96281C23.5322 1.74543 23.64 1.55283 23.8059 1.43494H24.5725C24.7383 1.55283 24.8465 1.74543 24.8465 1.96281C24.8465 2.32174 24.5524 2.61271 24.1892 2.61271Z" fill="#ACAEAD"/>
<path d="M25.9963 5.82239C25.4271 5.77095 24.8502 5.74467 24.2673 5.74467V3.68835C25.2278 3.68835 26.1728 3.75481 27.0973 3.88321L27.0867 3.93052L25.9963 5.82239Z" fill="#82701A"/>
<path d="M22.5603 5.82051L21.4753 3.96018L21.4575 3.88021C22.3759 3.75368 23.3137 3.68835 24.2674 3.68835V5.74467C23.692 5.74467 23.1228 5.7702 22.5603 5.82051Z" fill="#2F3A45"/>
<mask id="mask1_30_266" style="mask-type:luminance" maskUnits="userSpaceOnUse" x="20" y="0" width="8" height="8">
<path d="M20.8111 0H27.7091V7.6955H20.8111V0Z" fill="white"/>
</mask>
<g mask="url(#mask1_30_266)">
<path d="M27.6431 0.240995C26.5592 0.0859364 25.4514 0.00408936 24.325 0.00408936C23.1569 0.00408936 22.0092 0.0915681 20.887 0.25789L20.8954 1.45781L24.2723 7.64478L27.648 1.46007L27.6431 0.240995Z" fill="#DF2124"/>
</g>
<path d="M26.5596 1.8844C25.9053 1.79054 24.9827 1.7132 24.3022 1.7132C23.5967 1.7132 22.6514 1.78378 21.9739 1.8844L24.2704 6.32667L26.5596 1.8844Z" fill="#FBE96F"/>
</svg>
