<svg width="139" height="41" viewBox="0 0 139 41" fill="none" xmlns="http://www.w3.org/2000/svg">
<g opacity="0.71">
<path d="M2.76996 7.93401L8.59998 2.11401H47.99L53.29 7.42401H110.32L113.32 10.414H137.63V33.964H129.16L124.54 38.594H8.93997L2.85999 32.514L2.76996 7.93401Z" fill="#0A3055" fill-opacity="0.8"/>
</g>
<path d="M2.91998 8.25403C2.91998 4.94032 5.60627 2.25403 8.91998 2.25403H46.92C48.5768 2.25403 49.92 3.59717 49.92 5.25403V38.254H8.91998C5.60627 38.254 2.91998 35.5677 2.91998 32.254V8.25403Z" fill="#B4DAFF"/>
<path d="M59.45 0.314026L56.14 3.63403H60.82L64.14 0.314026H59.45Z" fill="#8FC8FF"/>
<path d="M68.82 0.314026L65.5 3.63403H70.19L73.5 0.314026H68.82Z" fill="#8FC8FF"/>
<path d="M87.56 0.314026L84.24 3.63403H88.93L92.24 0.314026H87.56Z" fill="#8FC8FF"/>
<path d="M78.19 0.314026L74.87 3.63403H79.56L82.87 0.314026H78.19Z" fill="#8FC8FF"/>
<path d="M124.73 39.044H8.74997L2.40997 32.704V32.514L2.31998 7.75403L8.40997 1.66403H48.17L53.48 6.97403H110.51L113.51 9.97403H138.08V34.424H129.35L124.73 39.044ZM9.12997 38.144H124.36L128.98 33.524H137.18V10.864H113.14L110.14 7.86403H53.11L47.8 2.55403H8.77997L3.21997 8.11403L3.29996 32.314L9.12997 38.144Z" fill="#8FC8FF"/>
<path d="M137.63 6.08402H116.35L112.88 2.61402H94.99V1.71402H113.25L116.73 5.18402H137.63V6.08402Z" fill="#8FC8FF"/>
<path d="M18.53 40.444H8.16998L1.54996 33.824L4.16998 31.204L9.70996 36.734H18.53V40.444Z" fill="#8FC8FF"/>
<path d="M125.31 40.444H74.14V36.734H123.77L128.4 32.114H137.47V35.824H129.93L125.31 40.444Z" fill="#8FC8FF"/>
<path d="M0.939972 14.834L0.919983 7.17403L7.82999 0.254028H47.99V3.96403H9.35999L4.62997 8.70403L4.64996 14.824L0.939972 14.834Z" fill="#8FC8FF"/>
<path d="M35.4054 11.7686C35.5443 11.9075 35.6797 12.0495 35.8116 12.1951C35.9435 12.3407 36.0715 12.4894 36.1964 12.6413C36.3209 12.7931 36.4416 12.9478 36.5587 13.1057C36.6755 13.2631 36.7888 13.4238 36.8979 13.5872C37.007 13.7503 37.1118 13.9163 37.2129 14.0846C37.3139 14.253 37.4107 14.4238 37.5033 14.5971C37.5959 14.7703 37.6839 14.9457 37.7681 15.1232C37.8519 15.3007 37.9316 15.4803 38.0066 15.6616C38.0817 15.8433 38.1525 16.0264 38.2185 16.2112C38.2848 16.3961 38.3465 16.5827 38.4033 16.7703C38.4605 16.9583 38.5128 17.1477 38.5605 17.3382C38.6082 17.5287 38.6513 17.7202 38.6895 17.9127C38.7278 18.1053 38.7614 18.2989 38.7902 18.4932C38.819 18.6876 38.8432 18.8822 38.8625 19.0776C38.8818 19.2733 38.8961 19.469 38.9056 19.6651C38.9154 19.8612 38.92 20.0576 38.92 20.254C38.92 20.4505 38.9154 20.6465 38.9056 20.8426C38.8961 21.039 38.8818 21.2347 38.8625 21.4301C38.8432 21.6255 38.819 21.8205 38.7902 22.0148C38.7614 22.2091 38.7278 22.4024 38.6895 22.595C38.6513 22.7875 38.6082 22.979 38.5605 23.1698C38.5128 23.3603 38.4605 23.5494 38.4033 23.7374C38.3465 23.9254 38.2848 24.1116 38.2185 24.2965C38.1525 24.4817 38.0817 24.6648 38.0066 24.8461C37.9316 25.0274 37.8519 25.207 37.7681 25.3845C37.6839 25.562 37.5959 25.7374 37.5033 25.9106C37.4107 26.0839 37.3139 26.2547 37.2129 26.4231C37.1118 26.5918 37.007 26.7574 36.8979 26.9208C36.7888 27.0843 36.6755 27.2446 36.5587 27.4024C36.4416 27.5602 36.3209 27.7149 36.1964 27.8668C36.0715 28.0183 35.9435 28.167 35.8116 28.3126C35.6797 28.4582 35.5443 28.6002 35.4054 28.7391C35.2665 28.878 35.1245 29.0134 34.9789 29.1453C34.8333 29.2772 34.6846 29.4056 34.5328 29.5301C34.3809 29.6546 34.2262 29.7756 34.0684 29.8924C33.9109 30.0096 33.7502 30.1225 33.5868 30.2316C33.4237 30.3407 33.2578 30.4459 33.0894 30.5466C32.921 30.6476 32.7502 30.7444 32.5769 30.837C32.4037 30.9296 32.2283 31.018 32.0508 31.1018C31.8733 31.186 31.6937 31.2653 31.5124 31.3407C31.3307 31.4157 31.1476 31.4862 30.9628 31.5525C30.7779 31.6188 30.5913 31.6802 30.4037 31.7374C30.2157 31.7942 30.0263 31.8468 29.8358 31.8945C29.6453 31.9422 29.4538 31.985 29.2613 32.0232C29.0687 32.0618 28.8751 32.0951 28.6808 32.1243C28.4865 32.153 28.2918 32.1769 28.0964 32.1962C27.9007 32.2154 27.705 32.2298 27.5089 32.2396C27.3128 32.2491 27.1164 32.254 26.92 32.254C26.7236 32.254 26.5275 32.2491 26.3314 32.2396C26.135 32.2298 25.9393 32.2154 25.7439 32.1962C25.5485 32.1769 25.3535 32.153 25.1592 32.1243C24.9649 32.0951 24.7716 32.0618 24.5791 32.0232C24.3865 31.985 24.195 31.9422 24.0042 31.8945C23.8137 31.8468 23.6246 31.7942 23.4366 31.7374C23.2486 31.6802 23.0624 31.6188 22.8775 31.5525C22.6923 31.4862 22.5092 31.4157 22.3279 31.3407C22.1466 31.2653 21.967 31.186 21.7895 31.1018C21.612 31.018 21.4366 30.9296 21.2634 30.837C21.0901 30.7444 20.9193 30.6476 20.7509 30.5466C20.5822 30.4459 20.4167 30.3407 20.2532 30.2316C20.0897 30.1225 19.9295 30.0096 19.7716 29.8924C19.6138 29.7756 19.4591 29.6546 19.3072 29.5301C19.1557 29.4056 19.007 29.2772 18.8614 29.1453C18.7158 29.0134 18.5738 28.878 18.4349 28.7391C18.296 28.6002 18.1606 28.4582 18.0287 28.3126C17.8968 28.167 17.7685 28.0183 17.6439 27.8668C17.5194 27.7149 17.3984 27.5602 17.2816 27.4024C17.1645 27.2446 17.0515 27.0843 16.9424 26.9208C16.8333 26.7574 16.7281 26.5918 16.6275 26.4231C16.5264 26.2547 16.4296 26.0839 16.337 25.9106C16.2444 25.7374 16.156 25.562 16.0722 25.3845C15.988 25.207 15.9088 25.0274 15.8333 24.8461C15.7583 24.6648 15.6878 24.4817 15.6215 24.2965C15.5552 24.1116 15.4938 23.9254 15.4366 23.7374C15.3798 23.5494 15.3272 23.3603 15.2795 23.1698C15.2318 22.979 15.189 22.7875 15.1508 22.595C15.1122 22.4024 15.0789 22.2091 15.0498 22.0148C15.021 21.8205 14.9971 21.6255 14.9779 21.4301C14.9586 21.2347 14.9442 21.039 14.9344 20.8426C14.9249 20.6465 14.92 20.4505 14.92 20.254C14.92 20.0576 14.9249 19.8612 14.9344 19.6651C14.9442 19.469 14.9586 19.2733 14.9779 19.0776C14.9971 18.8822 15.021 18.6876 15.0498 18.4932C15.0789 18.2989 15.1122 18.1053 15.1508 17.9127C15.189 17.7202 15.2318 17.5287 15.2795 17.3382C15.3272 17.1477 15.3798 16.9583 15.4366 16.7703C15.4938 16.5827 15.5552 16.3961 15.6215 16.2112C15.6878 16.0264 15.7583 15.8433 15.8333 15.6616C15.9088 15.4803 15.988 15.3007 16.0722 15.1232C16.156 14.9457 16.2444 14.7703 16.337 14.5971C16.4296 14.4238 16.5264 14.253 16.6275 14.0846C16.7281 13.9163 16.8333 13.7503 16.9424 13.5872C17.0515 13.4238 17.1645 13.2631 17.2816 13.1057C17.3984 12.9478 17.5194 12.7931 17.6439 12.6413C17.7685 12.4894 17.8968 12.3407 18.0287 12.1951C18.1606 12.0495 18.296 11.9075 18.4349 11.7686C18.5738 11.6297 18.7158 11.4943 18.8614 11.3624C19.007 11.2305 19.1557 11.1025 19.3072 10.9776C19.4591 10.8531 19.6138 10.7325 19.7716 10.6153C19.9295 10.4985 20.0897 10.3852 20.2532 10.2761C20.4167 10.167 20.5822 10.0622 20.7509 9.96115C20.9193 9.86013 21.0901 9.76332 21.2634 9.67072C21.4366 9.57813 21.612 9.49009 21.7895 9.4059C21.967 9.32207 22.1466 9.24245 22.3279 9.16739C22.5092 9.09233 22.6923 9.02148 22.8775 8.95554C23.0624 8.88924 23.2486 8.82751 23.4366 8.77069C23.6246 8.71352 23.8137 8.66125 24.0042 8.61355C24.195 8.56585 24.3865 8.52271 24.5791 8.48447C24.7716 8.44624 24.9649 8.41257 25.1592 8.38381C25.3535 8.35505 25.5485 8.33084 25.7439 8.31155C25.9393 8.29226 26.135 8.27788 26.3314 8.26841C26.5275 8.25859 26.7236 8.25403 26.92 8.25403C27.1164 8.25403 27.3128 8.25859 27.5089 8.26841C27.705 8.27788 27.9007 8.29226 28.0964 8.31155C28.2918 8.33084 28.4865 8.35505 28.6808 8.38381C28.8751 8.41257 29.0687 8.44624 29.2613 8.48447C29.4538 8.52271 29.6453 8.56585 29.8358 8.61355C30.0263 8.66125 30.2157 8.71352 30.4037 8.77069C30.5913 8.82751 30.7779 8.88924 30.9628 8.95554C31.1476 9.02148 31.3307 9.09233 31.5124 9.16739C31.6937 9.24245 31.8733 9.32207 32.0508 9.4059C32.2283 9.49009 32.4037 9.57813 32.5769 9.67072C32.7502 9.76332 32.921 9.86013 33.0894 9.96115C33.2578 10.0622 33.4237 10.167 33.5868 10.2761C33.7502 10.3852 33.9109 10.4985 34.0684 10.6153C34.2262 10.7325 34.3809 10.8531 34.5328 10.9776C34.6846 11.1025 34.8333 11.2305 34.9789 11.3624C35.1245 11.4943 35.2665 11.6297 35.4054 11.7686Z" fill="#FFAF38"/>
<path d="M27.1228 31.9142C20.5093 31.9142 15.1482 26.5647 15.1482 19.9659C15.1482 17.5785 15.8528 15.3567 17.0617 13.4904C15.7131 15.4237 14.92 17.772 14.92 20.306C14.92 26.9048 20.2815 32.254 26.8949 32.254C31.1157 32.254 34.8237 30.0731 36.9563 26.7812C34.7933 29.8824 31.1966 31.9142 27.1228 31.9142Z" fill="#B83D00" fill-opacity="0.3"/>
<path d="M26.7835 8.55361C33.3807 8.55361 38.7286 13.9398 38.7286 20.5837C38.7286 22.9508 38.0471 25.1565 36.8746 27.0177C38.1658 25.096 38.92 22.7789 38.92 20.2841C38.92 13.6402 33.572 8.25403 26.9748 8.25403C22.7281 8.25403 19.0019 10.4879 16.8836 13.8501C19.0309 10.6546 22.6635 8.55361 26.7835 8.55361Z" fill="#FFE838" fill-opacity="0.5"/>
<path d="M34.7882 12.3858C34.917 12.5146 35.0426 12.6465 35.165 12.7813C35.2871 12.9164 35.4059 13.054 35.5217 13.1948C35.637 13.3355 35.7492 13.4791 35.8575 13.6255C35.9662 13.7716 36.071 13.9204 36.1722 14.0721C36.2731 14.2235 36.3705 14.3773 36.4643 14.5332C36.5578 14.6895 36.6478 14.8479 36.7335 15.0084C36.8192 15.1693 36.9011 15.332 36.979 15.4963C37.057 15.6611 37.1307 15.8276 37.2002 15.9959C37.2701 16.1638 37.3357 16.3339 37.3967 16.5053C37.4581 16.6768 37.5153 16.8496 37.5682 17.0239C37.6211 17.1982 37.6698 17.3735 37.7139 17.5503C37.758 17.727 37.7978 17.9045 37.8335 18.083C37.8691 18.2619 37.9002 18.4411 37.927 18.6213C37.9538 18.8013 37.976 18.9819 37.9936 19.1632C38.0116 19.3446 38.025 19.5262 38.0339 19.7079C38.043 19.89 38.0473 20.072 38.0473 20.254C38.0473 20.4361 38.043 20.6181 38.0339 20.7998C38.025 20.9818 38.0116 21.1635 37.9936 21.3445C37.976 21.5258 37.9538 21.7065 37.927 21.8867C37.9002 22.0667 37.8691 22.2462 37.8335 22.4247C37.7978 22.6033 37.758 22.7811 37.7139 22.9578C37.6698 23.1342 37.6211 23.3099 37.5682 23.4842C37.5153 23.6584 37.4581 23.8313 37.3967 24.0028C37.3357 24.1742 37.2701 24.3439 37.2002 24.5122C37.1307 24.6805 37.057 24.847 36.979 25.0114C36.9011 25.1761 36.8192 25.3388 36.7335 25.4993C36.6478 25.6598 36.5578 25.8182 36.4643 25.9745C36.3705 26.1308 36.2731 26.2846 36.1722 26.4359C36.071 26.5873 35.9662 26.7362 35.8575 26.8826C35.7492 27.0286 35.637 27.1722 35.5217 27.313C35.4059 27.4537 35.2871 27.5917 35.165 27.7264C35.0426 27.8616 34.917 27.9935 34.7882 28.1223C34.6595 28.251 34.5275 28.3763 34.3927 28.4987C34.2576 28.6211 34.12 28.74 33.9793 28.8554C33.8385 28.9711 33.6949 29.0829 33.5485 29.1916C33.4025 29.2999 33.2536 29.4046 33.1019 29.5059C32.9505 29.6071 32.7967 29.7045 32.6408 29.798C32.4845 29.8918 32.3261 29.9815 32.1656 30.0672C32.0047 30.1533 31.8421 30.2351 31.6777 30.3127C31.5129 30.3907 31.3464 30.4644 31.1781 30.5343C31.0102 30.6038 30.8402 30.6694 30.6687 30.7308C30.4973 30.7922 30.3244 30.8493 30.1501 30.9022C29.9758 30.9548 29.8005 31.0035 29.6238 31.0476C29.447 31.092 29.2696 31.1319 29.0911 31.1675C28.9122 31.2028 28.733 31.2342 28.5527 31.2607C28.3728 31.2875 28.1921 31.3097 28.0108 31.3277C27.8295 31.3453 27.6478 31.3587 27.4661 31.3679C27.2841 31.3767 27.102 31.3813 26.92 31.3813C26.738 31.3813 26.5559 31.3767 26.3742 31.3679C26.1922 31.3587 26.0105 31.3453 25.8295 31.3277C25.6482 31.3097 25.4676 31.2875 25.2873 31.2607C25.1074 31.2342 24.9278 31.2028 24.7493 31.1675C24.5708 31.1319 24.393 31.092 24.2162 31.0476C24.0398 31.0035 23.8642 30.9548 23.6899 30.9022C23.5156 30.8493 23.3427 30.7922 23.1713 30.7308C22.9998 30.6694 22.8301 30.6038 22.6619 30.5343C22.4936 30.4644 22.3271 30.3907 22.1627 30.3127C21.9979 30.2351 21.8353 30.1533 21.6748 30.0672C21.5142 29.9815 21.3558 29.8918 21.1995 29.798C21.0433 29.7045 20.8894 29.6071 20.7381 29.5059C20.5868 29.4046 20.4379 29.2999 20.2915 29.1916C20.1454 29.0829 20.0018 28.9711 19.8611 28.8554C19.7203 28.74 19.5824 28.6211 19.4476 28.4987C19.3125 28.3763 19.1805 28.251 19.0518 28.1223C18.923 27.9935 18.7978 27.8616 18.6754 27.7264C18.5529 27.5917 18.434 27.4537 18.3187 27.313C18.203 27.1722 18.0911 27.0286 17.9825 26.8826C17.8742 26.7362 17.7694 26.5873 17.6681 26.4359C17.5669 26.2846 17.4695 26.1308 17.376 25.9745C17.2822 25.8182 17.1926 25.6598 17.1069 25.4993C17.0208 25.3388 16.9389 25.1761 16.8613 25.0114C16.7834 24.847 16.7096 24.6805 16.6398 24.5122C16.5703 24.3439 16.5046 24.1742 16.4433 24.0028C16.3819 23.8313 16.3247 23.6584 16.2718 23.4842C16.2192 23.3099 16.1706 23.1342 16.1265 22.9578C16.082 22.7811 16.0421 22.6033 16.0065 22.4247C15.9712 22.2462 15.9398 22.0667 15.9134 21.8867C15.8866 21.7065 15.8643 21.5258 15.8463 21.3445C15.8287 21.1635 15.8153 20.9818 15.8061 20.7998C15.7973 20.6181 15.7927 20.4361 15.7927 20.254C15.7927 20.072 15.7973 19.89 15.8061 19.7079C15.8153 19.5262 15.8287 19.3446 15.8463 19.1632C15.8643 18.9819 15.8866 18.8013 15.9134 18.6213C15.9398 18.4411 15.9712 18.2619 16.0065 18.083C16.0421 17.9045 16.082 17.727 16.1265 17.5503C16.1706 17.3735 16.2192 17.1982 16.2718 17.0239C16.3247 16.8496 16.3819 16.6768 16.4433 16.5053C16.5046 16.3339 16.5703 16.1638 16.6398 15.9959C16.7096 15.8276 16.7834 15.6611 16.8613 15.4963C16.9389 15.332 17.0208 15.1693 17.1069 15.0084C17.1926 14.8479 17.2822 14.6895 17.376 14.5332C17.4695 14.3773 17.5669 14.2235 17.6681 14.0721C17.7694 13.9204 17.8742 13.7716 17.9825 13.6255C18.0911 13.4791 18.203 13.3355 18.3187 13.1948C18.434 13.054 18.5529 12.9164 18.6754 12.7813C18.7978 12.6465 18.923 12.5146 19.0518 12.3858C19.1805 12.2571 19.3125 12.1315 19.4476 12.009C19.5824 11.887 19.7203 11.7681 19.8611 11.6524C20.0018 11.537 20.1454 11.4248 20.2915 11.3165C20.4379 11.2079 20.5868 11.1031 20.7381 11.0018C20.8894 10.9009 21.0433 10.8036 21.1995 10.7097C21.3558 10.6162 21.5142 10.5263 21.6748 10.4406C21.8353 10.3548 21.9979 10.273 22.1627 10.195C22.3271 10.117 22.4936 10.0433 22.6619 9.97381C22.8301 9.90396 22.9998 9.83834 23.1713 9.77731C23.3427 9.71593 23.5156 9.65877 23.6899 9.60586C23.8642 9.55294 24.0398 9.50425 24.2162 9.46015C24.393 9.41606 24.5708 9.37619 24.7493 9.34056C24.9278 9.30493 25.1074 9.27388 25.2873 9.24707C25.4676 9.22026 25.6482 9.19803 25.8295 9.18039C26.0105 9.1624 26.1922 9.149 26.3742 9.14018C26.5559 9.131 26.738 9.12677 26.92 9.12677C27.102 9.12677 27.2841 9.131 27.4661 9.14018C27.6478 9.149 27.8295 9.1624 28.0108 9.18039C28.1921 9.19803 28.3728 9.22026 28.5527 9.24707C28.733 9.27388 28.9122 9.30493 29.0911 9.34056C29.2696 9.37619 29.447 9.41606 29.6238 9.46015C29.8005 9.50425 29.9758 9.55294 30.1501 9.60586C30.3244 9.65877 30.4973 9.71593 30.6687 9.77731C30.8402 9.83834 31.0102 9.90396 31.1781 9.97381C31.3464 10.0433 31.5129 10.117 31.6777 10.195C31.8421 10.273 32.0047 10.3548 32.1656 10.4406C32.3261 10.5263 32.4845 10.6162 32.6408 10.7097C32.7967 10.8036 32.9505 10.9009 33.1019 11.0018C33.2536 11.1031 33.4025 11.2079 33.5485 11.3165C33.6949 11.4248 33.8385 11.537 33.9793 11.6524C34.12 11.7681 34.2576 11.887 34.3927 12.009C34.5275 12.1315 34.6595 12.2571 34.7882 12.3858Z" fill="#B83D00" fill-opacity="0.3"/>
<path d="M34.3254 12.8486C34.4467 12.9699 34.5648 13.094 34.6798 13.2212C34.7948 13.348 34.9067 13.4776 35.0154 13.6104C35.1241 13.7428 35.2297 13.8777 35.3318 14.0154C35.4339 14.153 35.5325 14.2931 35.6277 14.4356C35.7228 14.5782 35.8145 14.7231 35.9026 14.8702C35.9908 15.0169 36.0755 15.166 36.156 15.3173C36.2368 15.4685 36.3138 15.6215 36.3874 15.7766C36.4605 15.9313 36.5299 16.0881 36.5954 16.2463C36.6613 16.4045 36.7226 16.5645 36.7804 16.7258C36.8383 16.8872 36.892 17.0499 36.9418 17.2141C36.9916 17.3782 37.0373 17.543 37.0787 17.7096C37.1206 17.8758 37.1582 18.0428 37.1913 18.2111C37.2248 18.379 37.2544 18.548 37.2795 18.7174C37.3046 18.8871 37.3255 19.0572 37.3422 19.2276C37.3589 19.3983 37.3718 19.5691 37.3802 19.7402C37.3885 19.9113 37.3927 20.0828 37.3927 20.2542C37.3927 20.4257 37.3885 20.5968 37.3802 20.7679C37.3718 20.9393 37.3589 21.1101 37.3422 21.2805C37.3255 21.4512 37.3046 21.6213 37.2795 21.7907C37.2544 21.9604 37.2248 22.129 37.1913 22.2974C37.1582 22.4653 37.1206 22.6326 37.0787 22.7988C37.0373 22.965 36.9916 23.1302 36.9418 23.2944C36.892 23.4581 36.8383 23.6209 36.7804 23.7822C36.7226 23.9436 36.6613 24.1035 36.5954 24.2617C36.5299 24.4203 36.4605 24.5768 36.3874 24.7318C36.3138 24.8869 36.2368 25.0399 36.156 25.1908C36.0755 25.342 35.9908 25.4912 35.9026 25.6382C35.8145 25.7853 35.7228 25.9299 35.6277 26.0725C35.5325 26.215 35.4339 26.3551 35.3318 26.4927C35.2297 26.6304 35.1241 26.7656 35.0154 26.898C34.9067 27.0304 34.7948 27.1601 34.6798 27.2873C34.5648 27.4141 34.4467 27.5382 34.3254 27.6594C34.2041 27.7807 34.0801 27.8988 33.9529 28.0138C33.826 28.1292 33.6964 28.2411 33.5636 28.3498C33.4312 28.4585 33.2963 28.5637 33.1587 28.6658C33.021 28.768 32.8809 28.8666 32.7384 28.9621C32.5959 29.0572 32.4509 29.1488 32.3039 29.237C32.1571 29.3252 32.008 29.4095 31.8568 29.4904C31.7055 29.5712 31.5525 29.6482 31.3975 29.7214C31.2427 29.7946 31.0859 29.8643 30.9277 29.9298C30.7695 29.9953 30.6095 30.057 30.4482 30.1148C30.2868 30.1723 30.1241 30.2263 29.96 30.2758C29.7958 30.3257 29.631 30.3713 29.4644 30.4131C29.2982 30.4546 29.1313 30.4922 28.963 30.5257C28.795 30.5591 28.626 30.5884 28.4566 30.6135C28.2869 30.6386 28.1169 30.6595 27.9464 30.6766C27.7757 30.6933 27.6049 30.7059 27.4338 30.7142C27.2627 30.7226 27.0913 30.7268 26.9198 30.7268C26.7484 30.7268 26.5773 30.7226 26.4062 30.7142C26.2347 30.7059 26.0639 30.6933 25.8935 30.6766C25.7228 30.6595 25.5527 30.6386 25.3834 30.6135C25.2137 30.5884 25.045 30.5591 24.8767 30.5257C24.7087 30.4922 24.5414 30.4546 24.3752 30.4131C24.209 30.3713 24.0438 30.3257 23.8797 30.2758C23.7159 30.2263 23.5531 30.1723 23.3918 30.1148C23.2305 30.057 23.0705 29.9953 22.9123 29.9298C22.7537 29.8643 22.5973 29.7946 22.4422 29.7214C22.2871 29.6482 22.1341 29.5712 21.9832 29.4904C21.832 29.4095 21.6828 29.3252 21.5358 29.237C21.3887 29.1488 21.2441 29.0572 21.1016 28.9621C20.9591 28.8666 20.819 28.768 20.6813 28.6658C20.5437 28.5637 20.4085 28.4585 20.276 28.3498C20.1436 28.2411 20.014 28.1292 19.8868 28.0138C19.7599 27.8988 19.6359 27.7807 19.5146 27.6594C19.3933 27.5382 19.2752 27.4141 19.1602 27.2873C19.0448 27.1601 18.933 27.0304 18.8243 26.898C18.7155 26.7656 18.6103 26.6304 18.5082 26.4927C18.4061 26.3551 18.3075 26.215 18.212 26.0725C18.1168 25.9299 18.0252 25.7853 17.937 25.6382C17.8489 25.4912 17.7645 25.342 17.6837 25.1908C17.6028 25.0399 17.5258 24.8869 17.4526 24.7318C17.3795 24.5768 17.3098 24.4203 17.2442 24.2617C17.1787 24.1035 17.117 23.9436 17.0592 23.7822C17.0017 23.6209 16.9477 23.4581 16.8982 23.2944C16.8484 23.1302 16.8027 22.965 16.7609 22.7988C16.7194 22.6326 16.6818 22.4653 16.6483 22.2974C16.6149 22.129 16.5856 21.9604 16.5605 21.7907C16.5354 21.6213 16.5142 21.4512 16.4974 21.2805C16.4807 21.1101 16.4682 20.9393 16.4598 20.7679C16.4514 20.5968 16.4473 20.4257 16.4473 20.2542C16.4473 20.0828 16.4514 19.9113 16.4598 19.7402C16.4682 19.5691 16.4807 19.3983 16.4974 19.2276C16.5142 19.0572 16.5354 18.8871 16.5605 18.7174C16.5856 18.548 16.6149 18.379 16.6483 18.2111C16.6818 18.0428 16.7194 17.8758 16.7609 17.7096C16.8027 17.543 16.8484 17.3782 16.8982 17.2141C16.9477 17.0499 17.0017 16.8872 17.0592 16.7258C17.117 16.5645 17.1787 16.4045 17.2442 16.2463C17.3098 16.0881 17.3795 15.9313 17.4526 15.7766C17.5258 15.6215 17.6028 15.4685 17.6837 15.3173C17.7645 15.166 17.8489 15.0169 17.937 14.8702C18.0252 14.7231 18.1168 14.5782 18.212 14.4356C18.3075 14.2931 18.4061 14.153 18.5082 14.0154C18.6103 13.8777 18.7155 13.7428 18.8243 13.6104C18.933 13.4776 19.0448 13.348 19.1602 13.2212C19.2752 13.094 19.3933 12.9699 19.5146 12.8486C19.6359 12.7274 19.7599 12.6092 19.8868 12.4942C20.014 12.3792 20.1436 12.2674 20.276 12.1586C20.4085 12.0499 20.5437 11.9443 20.6813 11.8422C20.819 11.7401 20.9591 11.6415 21.1016 11.5464C21.2441 11.4512 21.3887 11.3596 21.5358 11.2714C21.6828 11.1833 21.832 11.0986 21.9832 11.0181C22.1341 10.9372 22.2871 10.8602 22.4422 10.7867C22.5973 10.7135 22.7537 10.6442 22.9123 10.5786C23.0705 10.5128 23.2305 10.4514 23.3918 10.3936C23.5531 10.3357 23.7159 10.2821 23.8797 10.2322C24.0438 10.1824 24.209 10.1368 24.3752 10.0953C24.5414 10.0535 24.7087 10.0158 24.8767 9.98273C25.045 9.94928 25.2137 9.91966 25.3834 9.89457C25.5527 9.86948 25.7228 9.84857 25.8935 9.83184C26.0639 9.81511 26.2347 9.80222 26.4062 9.79386C26.5773 9.78549 26.7484 9.78131 26.9198 9.78131C27.0913 9.78131 27.2627 9.78549 27.4338 9.79386C27.6049 9.80222 27.7757 9.81511 27.9464 9.83184C28.1169 9.84857 28.2869 9.86948 28.4566 9.89457C28.626 9.91966 28.795 9.94928 28.963 9.98273C29.1313 10.0158 29.2982 10.0535 29.4644 10.0953C29.631 10.1368 29.7958 10.1824 29.96 10.2322C30.1241 10.2821 30.2868 10.3357 30.4482 10.3936C30.6095 10.4514 30.7695 10.5128 30.9277 10.5786C31.0859 10.6442 31.2427 10.7135 31.3975 10.7867C31.5525 10.8602 31.7055 10.9372 31.8568 11.0181C32.008 11.0986 32.1571 11.1833 32.3039 11.2714C32.4509 11.3596 32.5959 11.4512 32.7384 11.5464C32.8809 11.6415 33.021 11.7401 33.1587 11.8422C33.2963 11.9443 33.4312 12.0499 33.5636 12.1586C33.6964 12.2674 33.826 12.3792 33.9529 12.4942C34.0801 12.6092 34.2041 12.7274 34.3254 12.8486Z" fill="#B83D00"/>
<path d="M26.2742 11.3586C32.0631 11.3586 36.7558 16.0321 36.7558 21.7973C36.7558 22.8546 36.5951 23.8741 36.3017 24.8359C36.9934 23.4427 37.3927 21.8793 37.3927 20.22C37.3927 14.4548 32.6996 9.78131 26.9111 9.78131C22.1839 9.78131 18.1904 12.8991 16.8836 17.1815C18.5954 13.7348 22.1518 11.3586 26.2742 11.3586Z" fill="#7D0000" fill-opacity="0.4"/>
<path d="M26.9853 13.6923L29.6079 17.3882C29.6693 17.4745 29.7578 17.5381 29.8592 17.5691L34.2175 18.8985C34.5351 18.9952 34.6594 19.375 34.46 19.6382L31.723 23.2517C31.6591 23.3359 31.625 23.4388 31.6268 23.5442L31.6977 28.0619C31.7026 28.3909 31.3769 28.6256 31.0628 28.5189L26.748 27.0562C26.6473 27.0221 26.5381 27.0221 26.4374 27.0562L22.1226 28.5189C21.8085 28.6256 21.4828 28.3909 21.4877 28.0619L21.5586 23.5442C21.5603 23.4388 21.5267 23.3359 21.4628 23.2517L18.7254 19.6382C18.526 19.375 18.6503 18.9952 18.9679 18.8985L23.3262 17.5691C23.428 17.5381 23.5161 17.4745 23.5775 17.3882L26.2001 13.6923C26.3914 13.4231 26.794 13.4231 26.9853 13.6923Z" fill="#B83D00" fill-opacity="0.3"/>
<path d="M27.089 13.2588L29.6757 17.0083C29.7363 17.0958 29.8232 17.1604 29.9236 17.1921L34.2221 18.5405C34.5354 18.639 34.658 19.0239 34.4613 19.2909L31.7615 22.9568C31.6985 23.0422 31.6652 23.147 31.6669 23.2539L31.7369 27.8367C31.7417 28.1708 31.4205 28.4086 31.1106 28.3003L26.855 26.8164C26.7556 26.7818 26.648 26.7818 26.5486 26.8164L22.2933 28.3003C21.9831 28.4086 21.6619 28.1704 21.6667 27.8367L21.7367 23.2539C21.7384 23.147 21.7052 23.0422 21.6422 22.9568L18.9423 19.2909C18.7456 19.0239 18.8682 18.639 19.1815 18.5405L23.48 17.1921C23.5804 17.1604 23.6677 17.0958 23.7279 17.0083L26.3149 13.2588C26.5033 12.9858 26.9003 12.9858 27.089 13.2588Z" fill="#B83D00" fill-opacity="0.3"/>
<path d="M34.8963 19.0735L32.1595 22.7358C32.1237 22.782 32.098 22.8388 32.0826 22.8956C32.0672 22.9365 32.0622 22.988 32.0622 23.0346L32.1338 27.6188C32.1338 27.768 32.0672 27.902 31.9647 27.9895C31.8419 28.0978 31.6675 28.139 31.4983 28.0823L27.183 26.5989C27.0857 26.5629 26.9727 26.5629 26.8755 26.5989L22.5602 28.0823C22.4423 28.1235 22.3244 28.1133 22.2219 28.072C22.0475 27.9997 21.9194 27.8248 21.9247 27.6188L21.9962 23.0346C21.9962 22.9263 21.9657 22.8233 21.899 22.7358L19.1622 19.0735C19.0341 18.9035 19.0393 18.682 19.1418 18.5223C19.2032 18.4295 19.2902 18.3576 19.4082 18.3216L23.7646 16.9771C23.867 16.9461 23.9541 16.8794 24.0158 16.7916L26.6397 13.0418C26.732 12.9081 26.8805 12.8358 27.0292 12.8358C27.178 12.8358 27.3265 12.9081 27.4237 13.0418L30.043 16.7916C30.1044 16.8794 30.1967 16.9461 30.2939 16.9771L34.6552 18.3216C34.7988 18.3678 34.9012 18.4708 34.9525 18.5946C35.0195 18.7438 35.0041 18.9293 34.8963 19.0735Z" fill="#FFA621"/>
<path d="M34.0329 19.2335L31.5586 22.4769C31.5261 22.5181 31.5027 22.5682 31.4889 22.6184C31.4751 22.655 31.4705 22.7006 31.4705 22.7418L31.5353 26.802C31.5353 26.9341 31.4751 27.0529 31.3824 27.1303C31.2712 27.2261 31.1137 27.2627 30.9608 27.2125L27.0592 25.8988C26.9711 25.8668 26.8691 25.8668 26.781 25.8988L22.8797 27.2125C22.7731 27.2491 22.6666 27.2401 22.5739 27.2035C22.4164 27.1397 22.3003 26.9846 22.3049 26.802L22.37 22.7418C22.37 22.6459 22.3421 22.5546 22.2819 22.4769L19.8076 19.2335C19.6915 19.0829 19.6965 18.8867 19.7889 18.7453C19.8444 18.663 19.9233 18.5993 20.0299 18.5672L23.9687 17.3765C24.0611 17.349 24.14 17.2897 24.1956 17.2124L26.5679 13.8912C26.6515 13.7724 26.7859 13.7086 26.9204 13.7086C27.0546 13.7086 27.1891 13.7724 27.2772 13.8912L29.645 17.2124C29.7005 17.2897 29.784 17.349 29.8718 17.3765L33.8153 18.5672C33.9448 18.6083 34.0375 18.6996 34.0839 18.809C34.1441 18.9414 34.1302 19.1056 34.0329 19.2335Z" fill="#FFAF38"/>
<path d="M26.9425 31.2108C20.8435 31.2108 15.8992 26.2676 15.8992 20.1695C15.8992 17.9449 16.563 15.8784 17.6949 14.1449C16.4947 15.9117 15.7927 18.0436 15.7927 20.34C15.7927 26.4377 20.737 31.3813 26.8357 31.3813C30.7101 31.3813 34.1125 29.3824 36.0836 26.3639C34.0971 29.2886 30.7447 31.2108 26.9425 31.2108Z" fill="#FFD438" fill-opacity="0.7"/>
<path d="M34.7745 18.526L26.9402 21.1215L26.92 21.1268V12.8358C27.0675 12.8358 27.2146 12.9073 27.3113 13.0394L29.9075 16.7445C29.9531 16.8107 30.0139 16.8616 30.0852 16.8971C30.1106 16.9125 30.1308 16.9177 30.1562 16.9278L34.4799 18.2562C34.6222 18.3019 34.7237 18.4037 34.7745 18.526Z" fill="#FFDB38" fill-opacity="0.3"/>
<path d="M26.92 21.1654L22.1786 27.8904C22.0069 27.8197 21.8802 27.6475 21.8854 27.4452L21.9564 22.9415C21.9564 22.8352 21.9259 22.734 21.8602 22.6481L21.8044 22.5722L19.1608 19.0501C19.0345 18.8831 19.0397 18.6655 19.1408 18.5086L26.9099 21.1602L26.92 21.1654Z" fill="#FF5500" fill-opacity="0.3"/>
<path d="M26.92 21.2137L21.8079 22.654L19.161 19.061C19.0345 18.8907 19.0397 18.6687 19.1409 18.5086L26.92 21.2137Z" fill="#FF5500" fill-opacity="0.2"/>
<path d="M31.9382 27.52C31.9382 27.6691 31.8727 27.803 31.7722 27.8904L26.92 21.1268L31.8879 22.7995C31.8731 22.8408 31.8679 22.8922 31.8679 22.9387L31.9382 27.52Z" fill="#FFDB38" fill-opacity="0.3"/>
<path d="M34.7745 18.5797L26.9502 21.1267H26.9301C26.9248 21.1267 26.92 21.1267 26.92 21.1267L26.9301 21.1117L30.0913 16.9813C30.1166 16.9963 30.1368 17.0015 30.1621 17.0114L34.4799 18.315C34.6224 18.3598 34.7238 18.4597 34.7745 18.5797Z" fill="#FFE438" fill-opacity="0.3"/>
<path d="M32.8087 10.1889C32.7728 10.2852 32.3053 10.1318 31.7643 9.84652C31.2234 9.56086 30.8135 9.25162 30.8494 9.15533C30.885 9.05944 31.3525 9.21286 31.8938 9.49813C32.4347 9.7834 32.8446 10.093 32.8087 10.1889Z" fill="#FFF7C9" fill-opacity="0.7"/>
<path d="M33.6796 10.4267C33.6518 10.4507 33.4845 10.4257 33.3059 10.3703C33.1272 10.3151 33.0051 10.2508 33.033 10.2268C33.0609 10.2026 33.2281 10.2279 33.4068 10.2831C33.5854 10.3382 33.7075 10.4025 33.6796 10.4267Z" fill="#FFF7C9" fill-opacity="0.7"/>
<path d="M69.72 30.454C68.3466 30.454 67.26 30.0807 66.46 29.334C65.66 28.574 65.26 27.5474 65.26 26.254H67.24C67.24 27.014 67.46 27.614 67.9 28.054C68.3533 28.4807 68.9666 28.694 69.74 28.694C70.5 28.694 71.1 28.4807 71.54 28.054C71.9933 27.614 72.22 27.014 72.22 26.254V25.234C72.22 24.474 72 23.874 71.56 23.434C71.12 22.9807 70.5133 22.754 69.74 22.754H68.1V21.094L71.62 17.434H65.7V15.654H73.84V17.454L69.74 21.694L69.78 21.014C71.14 21.014 72.22 21.394 73.02 22.154C73.82 22.9007 74.22 23.9274 74.22 25.234V26.254C74.22 27.5474 73.8133 28.574 73 29.334C72.2 30.0807 71.1067 30.454 69.72 30.454ZM81.9122 30.454C81.0055 30.454 80.2188 30.2807 79.5522 29.934C78.8855 29.574 78.3655 29.0674 77.9922 28.414C77.6322 27.7607 77.4522 27.0007 77.4522 26.134V19.774C77.4522 18.894 77.6322 18.134 77.9922 17.494C78.3655 16.8407 78.8855 16.3407 79.5522 15.994C80.2188 15.634 81.0055 15.454 81.9122 15.454C82.8322 15.454 83.6188 15.634 84.2722 15.994C84.9388 16.3407 85.4522 16.8407 85.8122 17.494C86.1855 18.134 86.3722 18.894 86.3722 19.774V26.134C86.3722 27.0007 86.1855 27.7607 85.8122 28.414C85.4522 29.0674 84.9388 29.574 84.2722 29.934C83.6055 30.2807 82.8188 30.454 81.9122 30.454ZM81.9122 28.754C82.6855 28.754 83.3055 28.514 83.7722 28.034C84.2388 27.5407 84.4722 26.9074 84.4722 26.134V19.774C84.4722 19.0007 84.2388 18.374 83.7722 17.894C83.3055 17.4007 82.6855 17.154 81.9122 17.154C81.1388 17.154 80.5188 17.4007 80.0522 17.894C79.5855 18.374 79.3522 19.0007 79.3522 19.774V26.134C79.3522 26.9074 79.5855 27.5407 80.0522 28.034C80.5188 28.514 81.1388 28.754 81.9122 28.754ZM81.9122 24.074C81.5388 24.074 81.2388 23.974 81.0122 23.774C80.7855 23.574 80.6722 23.2807 80.6722 22.894C80.6722 22.5207 80.7855 22.2407 81.0122 22.054C81.2388 21.854 81.5388 21.754 81.9122 21.754C82.2855 21.754 82.5855 21.854 82.8122 22.054C83.0388 22.2407 83.1522 22.5207 83.1522 22.894C83.1522 23.2807 83.0388 23.574 82.8122 23.774C82.5855 23.974 82.2855 24.074 81.9122 24.074ZM93.9044 30.454C92.9977 30.454 92.211 30.2807 91.5444 29.934C90.8777 29.574 90.3577 29.0674 89.9844 28.414C89.6244 27.7607 89.4444 27.0007 89.4444 26.134V19.774C89.4444 18.894 89.6244 18.134 89.9844 17.494C90.3577 16.8407 90.8777 16.3407 91.5444 15.994C92.211 15.634 92.9977 15.454 93.9044 15.454C94.8244 15.454 95.611 15.634 96.2644 15.994C96.931 16.3407 97.4444 16.8407 97.8044 17.494C98.1777 18.134 98.3644 18.894 98.3644 19.774V26.134C98.3644 27.0007 98.1777 27.7607 97.8044 28.414C97.4444 29.0674 96.931 29.574 96.2644 29.934C95.5977 30.2807 94.811 30.454 93.9044 30.454ZM93.9044 28.754C94.6777 28.754 95.2977 28.514 95.7644 28.034C96.231 27.5407 96.4644 26.9074 96.4644 26.134V19.774C96.4644 19.0007 96.231 18.374 95.7644 17.894C95.2977 17.4007 94.6777 17.154 93.9044 17.154C93.131 17.154 92.511 17.4007 92.0444 17.894C91.5777 18.374 91.3444 19.0007 91.3444 19.774V26.134C91.3444 26.9074 91.5777 27.5407 92.0444 28.034C92.511 28.514 93.131 28.754 93.9044 28.754ZM93.9044 24.074C93.531 24.074 93.231 23.974 93.0044 23.774C92.7777 23.574 92.6644 23.2807 92.6644 22.894C92.6644 22.5207 92.7777 22.2407 93.0044 22.054C93.231 21.854 93.531 21.754 93.9044 21.754C94.2777 21.754 94.5777 21.854 94.8044 22.054C95.031 22.2407 95.1444 22.5207 95.1444 22.894C95.1444 23.2807 95.031 23.574 94.8044 23.774C94.5777 23.974 94.2777 24.074 93.9044 24.074ZM105.897 30.454C104.99 30.454 104.203 30.2807 103.537 29.934C102.87 29.574 102.35 29.0674 101.977 28.414C101.617 27.7607 101.437 27.0007 101.437 26.134V19.774C101.437 18.894 101.617 18.134 101.977 17.494C102.35 16.8407 102.87 16.3407 103.537 15.994C104.203 15.634 104.99 15.454 105.897 15.454C106.817 15.454 107.603 15.634 108.257 15.994C108.923 16.3407 109.437 16.8407 109.797 17.494C110.17 18.134 110.357 18.894 110.357 19.774V26.134C110.357 27.0007 110.17 27.7607 109.797 28.414C109.437 29.0674 108.923 29.574 108.257 29.934C107.59 30.2807 106.803 30.454 105.897 30.454ZM105.897 28.754C106.67 28.754 107.29 28.514 107.757 28.034C108.223 27.5407 108.457 26.9074 108.457 26.134V19.774C108.457 19.0007 108.223 18.374 107.757 17.894C107.29 17.4007 106.67 17.154 105.897 17.154C105.123 17.154 104.503 17.4007 104.037 17.894C103.57 18.374 103.337 19.0007 103.337 19.774V26.134C103.337 26.9074 103.57 27.5407 104.037 28.034C104.503 28.514 105.123 28.754 105.897 28.754ZM105.897 24.074C105.523 24.074 105.223 23.974 104.997 23.774C104.77 23.574 104.657 23.2807 104.657 22.894C104.657 22.5207 104.77 22.2407 104.997 22.054C105.223 21.854 105.523 21.754 105.897 21.754C106.27 21.754 106.57 21.854 106.797 22.054C107.023 22.2407 107.137 22.5207 107.137 22.894C107.137 23.2807 107.023 23.574 106.797 23.774C106.57 23.974 106.27 24.074 105.897 24.074Z" fill="white"/>
</svg>
